<svg width="966" height="466" viewBox="0 0 966 466" fill="none" xmlns="http://www.w3.org/2000/svg">
<path d="M792.554 432.08C806.847 431.088 823.358 433.773 834.034 429.92C843.952 434.241 856.962 427.06 866.996 428.869C873.939 430.095 874.114 435.291 880.823 436.342C898.267 422.564 910.81 403.882 926.562 388.411C924.753 382.398 923.703 375.684 922.303 369.262L915.944 359.688H909.293C908.978 355.104 907.578 350.662 905.209 346.727C901.689 347.252 898.111 347.252 894.591 346.727C889.807 346.552 885.257 347.953 882.865 346.727C874.092 340.766 865.907 333.983 858.42 326.469C853.053 321.623 839.11 309.188 831.817 308.37C824.758 307.611 816.474 312.457 808.423 314.792C800.405 317.387 792.243 319.512 783.978 321.156C768.751 323.374 750.841 322.674 733.98 323.316C628.326 326.994 511.12 334.642 407.799 335.926C536.848 267.153 668.464 190.615 797.921 120.207C807.664 114.895 820.032 106.312 826.625 105.32C836.134 103.802 848.152 107.305 857.487 108.531C867.187 109.493 876.788 111.271 886.19 113.844C911.918 99.4818 940.797 88.2726 966 73.3854C960.606 70.9771 955.866 67.3141 952.173 62.7016C952.308 61.8518 952.328 60.9878 952.232 60.1328C956.782 57.9143 961.333 55.871 965.883 54.0028C958.182 43.8444 943.889 37.7144 930.471 30.0664C929.246 28.6652 926.854 27.556 928.312 25.571C914.252 16.9306 900.775 7.70634 885.782 0C870.964 5.07918 863.204 9.98321 848.327 14.8872C845.994 16.1133 842.027 12.0849 838.76 11.6763C816.707 24.9533 793.582 36.3581 769.626 45.771C751.904 53.2174 734.83 62.1219 718.578 72.3929C713.269 75.779 707.202 78.8148 701.543 81.9674L686.783 92.9431C505.053 183.901 357.101 248.354 181.905 328.629C184.915 330.443 187.63 332.707 189.956 335.343L113.822 362.723C91.8861 374.75 55.7151 388.236 25.5531 378.72C16.3755 382.45 7.77231 387.462 0 393.607C8.8094 398.278 18.2605 402.948 28.0034 407.56C26.4857 408.217 25.0055 408.958 23.5695 409.779C52.7397 423.09 86.5188 439.612 117.206 452.339C127.881 457.366 138.896 461.638 150.168 465.124C158.275 466.292 166.506 466.292 174.613 465.124C208.684 463.606 241.004 461.68 273.558 458.761C292.285 457.068 311.596 453.39 329.915 453.448C360.018 453.506 390.005 454.557 420.342 454.499C450.913 454.499 481.892 450.587 512.87 449.186C573.719 446.501 636.202 443.465 699.034 439.612C730.597 437.627 762.042 434.182 792.554 432.08Z" fill="black"/>
</svg>
