<svg width="1920" height="51" viewBox="0 0 1920 51" fill="none" xmlns="http://www.w3.org/2000/svg">
<path d="M386.021 17.68H0V51H1920V21.08H1628.97L1625.6 24.48L1633.68 32.64H1615.49L1623.58 24.48L1620.21 21.08H1510.4L1491.54 2.04L1483.45 10.2H1434.27L1417.43 27.2H1371.62L1362.19 17.68H1174.23L1166.82 25.16L1155.37 13.6L1151.33 17.68H1016.59L999.074 0L966.737 32.64L954.611 20.4H949.895L947.2 23.12L951.916 27.88H941.137L945.853 23.12L943.158 20.4H713.432H703.326L701.979 21.76L706.695 26.52V27.88H695.242V26.52L699.958 21.76L698.611 20.4H693.221L681.095 32.64L648.758 0L631.242 17.68H408.926L404.884 13.6L393.432 25.16L386.021 17.68Z" fill="#F3E600"/>
</svg>
