<svg width="1395" height="715" viewBox="0 0 1395 715" fill="none" xmlns="http://www.w3.org/2000/svg">
<rect width="1395" height="79.4306" fill="#F3E600"/>
<rect x="1.2411" y="80.2411" width="1392.52" height="633.518" fill="#090A1A" stroke="#F3E600" stroke-width="2.48221"/>
<path d="M802.661 31.5343V31.1471C802.661 30.9783 802.746 30.8939 802.915 30.8939H803.868C804.037 30.8939 804.121 30.9783 804.121 31.1471V31.4152C804.121 31.8322 804.21 32.135 804.389 32.3237C804.578 32.5024 804.885 32.5917 805.312 32.5917H806.34C806.767 32.5917 807.075 32.4974 807.263 32.3088C807.452 32.1102 807.546 31.7925 807.546 31.3556V31.0131C807.546 30.6953 807.422 30.4471 807.174 30.2684C806.936 30.0797 806.638 29.9606 806.28 29.911C805.923 29.8514 805.531 29.772 805.104 29.6727C804.677 29.5734 804.285 29.4592 803.927 29.3301C803.57 29.201 803.267 28.9578 803.019 28.6004C802.781 28.2429 802.661 27.7862 802.661 27.2302V26.6047C802.661 25.8799 802.865 25.3139 803.272 24.9068C803.689 24.4898 804.26 24.2813 804.985 24.2813H806.563C807.298 24.2813 807.869 24.4898 808.276 24.9068C808.693 25.3139 808.902 25.8799 808.902 26.6047V26.9323C808.902 27.1011 808.817 27.1855 808.648 27.1855H807.695C807.527 27.1855 807.442 27.1011 807.442 26.9323V26.7387C807.442 26.3118 807.348 26.0089 807.159 25.8302C806.98 25.6416 806.678 25.5472 806.251 25.5472H805.312C804.885 25.5472 804.578 25.6465 804.389 25.8451C804.21 26.0338 804.121 26.3614 804.121 26.8281V27.2897C804.121 27.7365 804.444 28.0394 805.089 28.1982C805.377 28.2677 805.69 28.3273 806.027 28.377C806.375 28.4266 806.722 28.5011 807.07 28.6004C807.417 28.6996 807.735 28.8337 808.023 29.0025C808.311 29.1613 808.544 29.4096 808.723 29.7471C808.902 30.0748 808.991 30.4769 808.991 30.9535V31.5343C808.991 32.2591 808.783 32.83 808.366 33.247C807.958 33.6541 807.393 33.8577 806.668 33.8577H805C804.275 33.8577 803.704 33.6541 803.287 33.247C802.87 32.83 802.661 32.2591 802.661 31.5343ZM813.889 33.8577H812.31C812.131 33.8577 812.027 33.7733 811.997 33.6045L810.225 24.5345C810.205 24.3657 810.29 24.2813 810.478 24.2813H811.625C811.814 24.2813 811.913 24.3657 811.923 24.5345L813.129 32.3386H813.219L814.976 24.5047C814.996 24.3558 815.085 24.2813 815.244 24.2813H816.495C816.654 24.2813 816.748 24.3558 816.778 24.5047L818.55 32.3386H818.64L819.846 24.5494C819.856 24.3707 819.955 24.2813 820.144 24.2813H821.291C821.489 24.2813 821.574 24.3707 821.544 24.5494L819.772 33.6045C819.742 33.7733 819.642 33.8577 819.474 33.8577H817.895C817.726 33.8577 817.627 33.7733 817.597 33.6045L815.914 26.0685H815.855L814.172 33.6045C814.142 33.7733 814.048 33.8577 813.889 33.8577ZM831.568 33.8577H826.742C826.573 33.8577 826.489 33.7733 826.489 33.6045V24.5345C826.489 24.3657 826.573 24.2813 826.742 24.2813H827.68C827.849 24.2813 827.934 24.3657 827.934 24.5345V32.413C827.934 32.5123 827.993 32.562 828.112 32.562H831.568C831.736 32.562 831.821 32.6513 831.821 32.83V33.6045C831.821 33.7733 831.736 33.8577 831.568 33.8577ZM834.713 24.5345V33.6045C834.713 33.7733 834.629 33.8577 834.46 33.8577H833.521C833.353 33.8577 833.268 33.7733 833.268 33.6045V24.5345C833.268 24.3657 833.353 24.2813 833.521 24.2813H834.46C834.629 24.2813 834.713 24.3657 834.713 24.5345ZM838.137 33.8577H837.214C837.045 33.8577 836.961 33.7733 836.961 33.6045V24.5345C836.961 24.3657 837.045 24.2813 837.214 24.2813H838.048C838.207 24.2813 838.316 24.3359 838.376 24.4451L841.98 30.9237H842.039V24.5345C842.039 24.3657 842.124 24.2813 842.293 24.2813H843.216C843.385 24.2813 843.469 24.3657 843.469 24.5345V33.6045C843.469 33.7733 843.385 33.8577 843.216 33.8577H842.412C842.253 33.8577 842.124 33.7782 842.024 33.6194L838.45 27.2153H838.391V33.6045C838.391 33.7733 838.306 33.8577 838.137 33.8577ZM850.663 33.8577H845.897C845.728 33.8577 845.644 33.7733 845.644 33.6045V24.5345C845.644 24.3657 845.728 24.2813 845.897 24.2813H850.663C850.822 24.2813 850.901 24.3657 850.901 24.5345V25.2941C850.901 25.4628 850.822 25.5472 850.663 25.5472H847.267C847.148 25.5472 847.088 25.5969 847.088 25.6962V28.2131C847.088 28.3124 847.148 28.3621 847.267 28.3621H850.141C850.32 28.3621 850.409 28.4465 850.409 28.6152V29.3748C850.409 29.5436 850.32 29.628 850.141 29.628H847.267C847.148 29.628 847.088 29.6776 847.088 29.7769V32.4279C847.088 32.5371 847.148 32.5917 847.267 32.5917H850.663C850.822 32.5917 850.901 32.6761 850.901 32.8449V33.6045C850.901 33.7733 850.822 33.8577 850.663 33.8577ZM858.672 32.5917H859.729C860.444 32.5917 860.801 32.2244 860.801 31.4896V26.6493C860.801 25.9146 860.444 25.5472 859.729 25.5472H858.672C857.957 25.5472 857.599 25.9146 857.599 26.6493V31.4896C857.599 32.2244 857.957 32.5917 858.672 32.5917ZM859.937 33.8577H858.448C857.713 33.8577 857.142 33.6541 856.735 33.247C856.328 32.84 856.125 32.274 856.125 31.5492V26.5898C856.125 25.855 856.328 25.2891 856.735 24.8919C857.142 24.4849 857.713 24.2813 858.448 24.2813H859.937C860.662 24.2813 861.228 24.4849 861.635 24.8919C862.042 25.2891 862.246 25.855 862.246 26.5898V31.5492C862.246 32.274 862.042 32.84 861.635 33.247C861.228 33.6541 860.662 33.8577 859.937 33.8577ZM863.546 26.6196V25.7409C863.546 25.582 863.616 25.4628 863.755 25.3834L865.304 24.4451C865.492 24.3359 865.651 24.2813 865.78 24.2813H866.674C866.843 24.2813 866.927 24.3657 866.927 24.5345V33.6045C866.927 33.7733 866.848 33.8577 866.689 33.8577H865.721C865.552 33.8577 865.468 33.7733 865.468 33.6045V25.8302L863.844 26.7685C863.646 26.8578 863.546 26.8082 863.546 26.6196ZM871.412 32.5917H872.47C873.185 32.5917 873.542 32.2244 873.542 31.4896V26.6493C873.542 25.9146 873.185 25.5472 872.47 25.5472H871.412C870.697 25.5472 870.34 25.9146 870.34 26.6493V31.4896C870.34 32.2244 870.697 32.5917 871.412 32.5917ZM872.678 33.8577H871.189C870.454 33.8577 869.883 33.6541 869.476 33.247C869.069 32.84 868.865 32.274 868.865 31.5492V26.5898C868.865 25.855 869.069 25.2891 869.476 24.8919C869.883 24.4849 870.454 24.2813 871.189 24.2813H872.678C873.403 24.2813 873.969 24.4849 874.376 24.8919C874.783 25.2891 874.987 25.855 874.987 26.5898V31.5492C874.987 32.274 874.783 32.84 874.376 33.247C873.969 33.6541 873.403 33.8577 872.678 33.8577ZM879.281 32.5917H880.338C881.053 32.5917 881.41 32.2244 881.41 31.4896V26.6493C881.41 25.9146 881.053 25.5472 880.338 25.5472H879.281C878.566 25.5472 878.208 25.9146 878.208 26.6493V31.4896C878.208 32.2244 878.566 32.5917 879.281 32.5917ZM880.547 33.8577H879.057C878.322 33.8577 877.752 33.6541 877.344 33.247C876.937 32.84 876.734 32.274 876.734 31.5492V26.5898C876.734 25.855 876.937 25.2891 877.344 24.8919C877.752 24.4849 878.322 24.2813 879.057 24.2813H880.547C881.271 24.2813 881.837 24.4849 882.244 24.8919C882.651 25.2891 882.855 25.855 882.855 26.5898V31.5492C882.855 32.274 882.651 32.84 882.244 33.247C881.837 33.6541 881.271 33.8577 880.547 33.8577ZM887.149 32.5917H888.206C888.921 32.5917 889.279 32.2244 889.279 31.4896V26.6493C889.279 25.9146 888.921 25.5472 888.206 25.5472H887.149C886.434 25.5472 886.077 25.9146 886.077 26.6493V31.4896C886.077 32.2244 886.434 32.5917 887.149 32.5917ZM888.415 33.8577H886.926C886.191 33.8577 885.62 33.6541 885.213 33.247C884.806 32.84 884.602 32.274 884.602 31.5492V26.5898C884.602 25.855 884.806 25.2891 885.213 24.8919C885.62 24.4849 886.191 24.2813 886.926 24.2813H888.415C889.14 24.2813 889.706 24.4849 890.113 24.8919C890.52 25.2891 890.723 25.855 890.723 26.5898V31.5492C890.723 32.274 890.52 32.84 890.113 33.247C889.706 33.6541 889.14 33.8577 888.415 33.8577ZM895.017 32.5917H896.075C896.79 32.5917 897.147 32.2244 897.147 31.4896V26.6493C897.147 25.9146 896.79 25.5472 896.075 25.5472H895.017C894.303 25.5472 893.945 25.9146 893.945 26.6493V31.4896C893.945 32.2244 894.303 32.5917 895.017 32.5917ZM896.283 33.8577H894.794C894.059 33.8577 893.488 33.6541 893.081 33.247C892.674 32.84 892.471 32.274 892.471 31.5492V26.5898C892.471 25.855 892.674 25.2891 893.081 24.8919C893.488 24.4849 894.059 24.2813 894.794 24.2813H896.283C897.008 24.2813 897.574 24.4849 897.981 24.8919C898.388 25.2891 898.592 25.855 898.592 26.5898V31.5492C898.592 32.274 898.388 32.84 897.981 33.247C897.574 33.6541 897.008 33.8577 896.283 33.8577ZM900.25 33.6045V32.2343C900.25 31.6187 900.513 31.1024 901.039 30.6854L903.854 28.3918C904.33 28.0146 904.569 27.5777 904.569 27.0812V26.5898C904.569 25.8749 904.196 25.5175 903.452 25.5175H902.722C902.345 25.5175 902.072 25.6018 901.903 25.7706C901.734 25.9394 901.65 26.2125 901.65 26.5898V27.1408C901.65 27.3195 901.565 27.4089 901.396 27.4089H900.443C900.275 27.4089 900.19 27.3195 900.19 27.1408V26.56C900.19 25.8352 900.394 25.2742 900.801 24.877C901.208 24.4799 901.779 24.2813 902.513 24.2813H903.675C904.4 24.2813 904.966 24.4799 905.373 24.877C905.78 25.2742 905.984 25.8352 905.984 26.56V27.1706C905.984 27.945 905.681 28.5805 905.075 29.0769L902.216 31.4152C901.987 31.6038 901.873 31.8272 901.873 32.0854V32.562H905.745C905.924 32.562 906.013 32.6463 906.013 32.8151V33.6045C906.013 33.7733 905.924 33.8577 905.745 33.8577H900.518C900.339 33.8577 900.25 33.7733 900.25 33.6045ZM907.15 26.6196V25.7409C907.15 25.582 907.219 25.4628 907.358 25.3834L908.907 24.4451C909.096 24.3359 909.255 24.2813 909.384 24.2813H910.277C910.446 24.2813 910.531 24.3657 910.531 24.5345V33.6045C910.531 33.7733 910.451 33.8577 910.292 33.8577H909.324C909.155 33.8577 909.071 33.7733 909.071 33.6045V25.8302L907.448 26.7685C907.249 26.8578 907.15 26.8082 907.15 26.6196ZM913.839 31.7875V33.6045C913.839 33.7733 913.76 33.8577 913.601 33.8577H912.588C912.419 33.8577 912.335 33.7733 912.335 33.6045V31.7875C912.335 31.6286 912.419 31.5492 912.588 31.5492H913.601C913.76 31.5492 913.839 31.6286 913.839 31.7875ZM914.989 26.6196V25.7409C914.989 25.582 915.059 25.4628 915.198 25.3834L916.747 24.4451C916.935 24.3359 917.094 24.2813 917.223 24.2813H918.117C918.286 24.2813 918.37 24.3657 918.37 24.5345V33.6045C918.37 33.7733 918.29 33.8577 918.132 33.8577H917.164C916.995 33.8577 916.91 33.7733 916.91 33.6045V25.8302L915.287 26.7685C915.088 26.8578 914.989 26.8082 914.989 26.6196ZM920.219 33.6045V32.2343C920.219 31.6187 920.482 31.1024 921.008 30.6854L923.823 28.3918C924.3 28.0146 924.538 27.5777 924.538 27.0812V26.5898C924.538 25.8749 924.166 25.5175 923.421 25.5175H922.691C922.314 25.5175 922.041 25.6018 921.872 25.7706C921.703 25.9394 921.619 26.2125 921.619 26.5898V27.1408C921.619 27.3195 921.534 27.4089 921.366 27.4089H920.412C920.244 27.4089 920.159 27.3195 920.159 27.1408V26.56C920.159 25.8352 920.363 25.2742 920.77 24.877C921.177 24.4799 921.748 24.2813 922.483 24.2813H923.644C924.369 24.2813 924.935 24.4799 925.342 24.877C925.749 25.2742 925.953 25.8352 925.953 26.56V27.1706C925.953 27.945 925.65 28.5805 925.044 29.0769L922.185 31.4152C921.956 31.6038 921.842 31.8272 921.842 32.0854V32.562H925.714C925.893 32.562 925.983 32.6463 925.983 32.8151V33.6045C925.983 33.7733 925.893 33.8577 925.714 33.8577H920.487C920.308 33.8577 920.219 33.7733 920.219 33.6045ZM930.113 32.5917H931.17C931.885 32.5917 932.242 32.2244 932.242 31.4896V26.6493C932.242 25.9146 931.885 25.5472 931.17 25.5472H930.113C929.398 25.5472 929.04 25.9146 929.04 26.6493V31.4896C929.04 32.2244 929.398 32.5917 930.113 32.5917ZM931.378 33.8577H929.889C929.154 33.8577 928.583 33.6541 928.176 33.247C927.769 32.84 927.566 32.274 927.566 31.5492V26.5898C927.566 25.855 927.769 25.2891 928.176 24.8919C928.583 24.4849 929.154 24.2813 929.889 24.2813H931.378C932.103 24.2813 932.669 24.4849 933.076 24.8919C933.483 25.2891 933.687 25.855 933.687 26.5898V31.5492C933.687 32.274 933.483 32.84 933.076 33.247C932.669 33.6541 932.103 33.8577 931.378 33.8577ZM937.981 32.5917H939.038C939.753 32.5917 940.111 32.2244 940.111 31.4896V26.6493C940.111 25.9146 939.753 25.5472 939.038 25.5472H937.981C937.266 25.5472 936.909 25.9146 936.909 26.6493V31.4896C936.909 32.2244 937.266 32.5917 937.981 32.5917ZM939.247 33.8577H937.758C937.023 33.8577 936.452 33.6541 936.045 33.247C935.638 32.84 935.434 32.274 935.434 31.5492V26.5898C935.434 25.855 935.638 25.2891 936.045 24.8919C936.452 24.4849 937.023 24.2813 937.758 24.2813H939.247C939.972 24.2813 940.538 24.4849 940.945 24.8919C941.352 25.2891 941.555 25.855 941.555 26.5898V31.5492C941.555 32.274 941.352 32.84 940.945 33.247C940.538 33.6541 939.972 33.8577 939.247 33.8577ZM945.849 32.5917H946.907C947.622 32.5917 947.979 32.2244 947.979 31.4896V26.6493C947.979 25.9146 947.622 25.5472 946.907 25.5472H945.849C945.134 25.5472 944.777 25.9146 944.777 26.6493V31.4896C944.777 32.2244 945.134 32.5917 945.849 32.5917ZM947.115 33.8577H945.626C944.891 33.8577 944.32 33.6541 943.913 33.247C943.506 32.84 943.303 32.274 943.303 31.5492V26.5898C943.303 25.855 943.506 25.2891 943.913 24.8919C944.32 24.4849 944.891 24.2813 945.626 24.2813H947.115C947.84 24.2813 948.406 24.4849 948.813 24.8919C949.22 25.2891 949.424 25.855 949.424 26.5898V31.5492C949.424 32.274 949.22 32.84 948.813 33.247C948.406 33.6541 947.84 33.8577 947.115 33.8577ZM953.718 32.5917H954.775C955.49 32.5917 955.847 32.2244 955.847 31.4896V26.6493C955.847 25.9146 955.49 25.5472 954.775 25.5472H953.718C953.003 25.5472 952.645 25.9146 952.645 26.6493V31.4896C952.645 32.2244 953.003 32.5917 953.718 32.5917ZM954.984 33.8577H953.494C952.76 33.8577 952.189 33.6541 951.782 33.247C951.375 32.84 951.171 32.274 951.171 31.5492V26.5898C951.171 25.855 951.375 25.2891 951.782 24.8919C952.189 24.4849 952.76 24.2813 953.494 24.2813H954.984C955.708 24.2813 956.274 24.4849 956.681 24.8919C957.089 25.2891 957.292 25.855 957.292 26.5898V31.5492C957.292 32.274 957.089 32.84 956.681 33.247C956.274 33.6541 955.708 33.8577 954.984 33.8577Z" fill="#4A4A4A"/>
<path d="M47.1023 45.6976V44.665C47.1023 44.2149 47.3274 43.9898 47.7775 43.9898H50.3193C50.7694 43.9898 50.9944 44.2149 50.9944 44.665V45.3799C50.9944 46.4919 51.2327 47.2995 51.7093 47.8025C52.2124 48.2791 53.0331 48.5174 54.1716 48.5174H56.912C58.0505 48.5174 58.8713 48.2659 59.3744 47.7628C59.8774 47.2333 60.1289 46.386 60.1289 45.221V44.3076C60.1289 43.4603 59.798 42.7984 59.1361 42.3218C58.5006 41.8187 57.7063 41.501 56.7531 41.3686C55.8 41.2098 54.7541 40.998 53.6156 40.7332C52.4771 40.4684 51.4313 40.1639 50.4781 39.8197C49.525 39.4755 48.7174 38.8269 48.0555 37.8737C47.42 36.9205 47.1023 35.7026 47.1023 34.2199V32.5518C47.1023 30.619 47.6451 29.1098 48.7306 28.0243C49.8427 26.9123 51.3651 26.3562 53.2979 26.3562H57.5077C59.467 26.3562 60.9894 26.9123 62.075 28.0243C63.187 29.1098 63.743 30.619 63.743 32.5518V33.4256C63.743 33.8757 63.518 34.1007 63.0679 34.1007H60.5261C60.076 34.1007 59.8509 33.8757 59.8509 33.4256V32.9093C59.8509 31.7708 59.5994 30.9632 59.0963 30.4866C58.6198 29.9836 57.8122 29.732 56.6737 29.732H54.1716C53.0331 29.732 52.2124 29.9968 51.7093 30.5264C51.2327 31.0294 50.9944 31.9031 50.9944 33.1476V34.3787C50.9944 35.5702 51.8549 36.3777 53.5759 36.8014C54.3437 36.9867 55.1778 37.1456 56.078 37.278C57.0047 37.4103 57.9314 37.6089 58.8581 37.8737C59.7847 38.1385 60.632 38.4959 61.3998 38.946C62.1677 39.3696 62.7899 40.0316 63.2665 40.9318C63.743 41.8055 63.9813 42.8778 63.9813 44.1487V45.6976C63.9813 47.6304 63.4253 49.1528 62.3133 50.2649C61.2277 51.3504 59.7186 51.8932 57.7857 51.8932H53.3376C51.4048 51.8932 49.8824 51.3504 48.7704 50.2649C47.6583 49.1528 47.1023 47.6304 47.1023 45.6976ZM82.6813 26.3562H85.1834C85.66 26.3562 85.8983 26.5681 85.8983 26.9917V45.7373C85.8983 47.6701 85.3423 49.1793 84.2302 50.2649C83.1447 51.3504 81.6355 51.8932 79.7027 51.8932H75.2943C73.3615 51.8932 71.8523 51.3504 70.7667 50.2649C69.6812 49.1793 69.1384 47.6701 69.1384 45.7373V27.0314C69.1384 26.5813 69.3635 26.3562 69.8136 26.3562H72.3156C72.7658 26.3562 72.9908 26.5813 72.9908 27.0314V45.5785C72.9908 47.5377 73.944 48.5174 75.8503 48.5174H79.107C81.0398 48.5174 82.0062 47.5377 82.0062 45.5785V27.0314C82.0062 26.5813 82.2312 26.3562 82.6813 26.3562ZM95.7334 48.5968H101.294C103.279 48.5968 104.272 47.6437 104.272 45.7373V43.275C104.272 41.3686 103.226 40.4155 101.135 40.4155H95.7334C95.4422 40.4155 95.2965 40.5478 95.2965 40.8126V48.1997C95.2965 48.4644 95.4422 48.5968 95.7334 48.5968ZM95.7334 37.2382H100.896C102.909 37.2382 103.915 36.2718 103.915 34.339V32.5121C103.915 30.6058 102.935 29.6526 100.976 29.6526H95.7334C95.4422 29.6526 95.2965 29.785 95.2965 30.0498V36.8411C95.2965 37.1059 95.4422 37.2382 95.7334 37.2382ZM91.4442 51.218V27.0314C91.4442 26.5813 91.6692 26.3562 92.1193 26.3562H101.532C103.491 26.3562 105.014 26.8858 106.099 27.9449C107.185 29.0039 107.727 30.4999 107.727 32.4327V34.3787C107.727 36.6822 106.642 38.1649 104.471 38.8269C105.503 38.9592 106.351 39.4093 107.013 40.1772C107.701 40.945 108.045 41.9776 108.045 43.275V45.8167C108.045 47.7496 107.502 49.2455 106.417 50.3046C105.331 51.3637 103.822 51.8932 101.889 51.8932H92.1193C91.6692 51.8932 91.4442 51.6681 91.4442 51.218ZM124.954 26.3562H127.456C127.906 26.3562 128.131 26.5681 128.131 26.9917V45.7373C128.131 47.6701 127.589 49.1793 126.503 50.2649C125.418 51.3504 123.908 51.8932 121.976 51.8932H118.004C116.045 51.8932 114.522 51.3504 113.437 50.2649C112.351 49.1793 111.808 47.6701 111.808 45.7373V42.1629C111.808 41.7128 112.047 41.4878 112.523 41.4878H115.025C115.476 41.4878 115.701 41.7128 115.701 42.1629V45.5785C115.701 47.5377 116.654 48.5174 118.56 48.5174H121.38C123.286 48.5174 124.239 47.5377 124.239 45.5785V27.0314C124.239 26.5813 124.478 26.3562 124.954 26.3562ZM147.103 51.8932H134.394C133.944 51.8932 133.719 51.6681 133.719 51.218V27.0314C133.719 26.5813 133.944 26.3562 134.394 26.3562H147.103C147.527 26.3562 147.739 26.5813 147.739 27.0314V29.0569C147.739 29.507 147.527 29.732 147.103 29.732H138.048C137.73 29.732 137.572 29.8644 137.572 30.1292V36.8411C137.572 37.1059 137.73 37.2382 138.048 37.2382H145.713C146.19 37.2382 146.428 37.4633 146.428 37.9134V39.9389C146.428 40.389 146.19 40.614 145.713 40.614H138.048C137.73 40.614 137.572 40.7464 137.572 41.0112V48.0805C137.572 48.3718 137.73 48.5174 138.048 48.5174H147.103C147.527 48.5174 147.739 48.7424 147.739 49.1925V51.218C147.739 51.6681 147.527 51.8932 147.103 51.8932ZM163.167 51.8932H158.56C156.601 51.8932 155.078 51.3504 153.993 50.2649C152.934 49.1793 152.404 47.6701 152.404 45.7373V32.5121C152.404 30.5528 152.934 29.0436 153.993 27.9846C155.078 26.899 156.601 26.3562 158.56 26.3562H163.167C165.1 26.3562 166.609 26.899 167.694 27.9846C168.78 29.0436 169.323 30.5528 169.323 32.5121V34.4185C169.323 34.895 169.084 35.1333 168.608 35.1333H166.106C165.656 35.1333 165.431 34.895 165.431 34.4185V32.671C165.431 30.7117 164.477 29.732 162.571 29.732H159.116C157.21 29.732 156.256 30.7117 156.256 32.671V45.5785C156.256 47.5377 157.21 48.5174 159.116 48.5174H162.571C164.477 48.5174 165.431 47.5377 165.431 45.5785V43.831C165.431 43.3544 165.656 43.1161 166.106 43.1161H168.608C169.084 43.1161 169.323 43.3544 169.323 43.831V45.7373C169.323 47.6701 168.78 49.1793 167.694 50.2649C166.609 51.3504 165.1 51.8932 163.167 51.8932ZM181.239 51.8932H178.737C178.26 51.8932 178.022 51.6681 178.022 51.218V30.1292C178.022 29.8644 177.89 29.732 177.625 29.732H172.621C172.144 29.732 171.906 29.507 171.906 29.0569V27.0314C171.906 26.5813 172.144 26.3562 172.621 26.3562H187.355C187.832 26.3562 188.07 26.5813 188.07 27.0314V29.0569C188.07 29.507 187.832 29.732 187.355 29.732H182.351C182.06 29.732 181.914 29.8644 181.914 30.1292V51.218C181.914 51.6681 181.689 51.8932 181.239 51.8932ZM202.323 51.8932H199.463C199.093 51.8932 198.96 51.6681 199.066 51.218L205.977 27.0314C206.109 26.5813 206.427 26.3562 206.93 26.3562H210.901C211.431 26.3562 211.749 26.5813 211.854 27.0314L218.765 51.218C218.871 51.6681 218.725 51.8932 218.328 51.8932H215.508C215.27 51.8932 215.098 51.8535 214.992 51.774C214.913 51.6681 214.846 51.4828 214.793 51.218L213.284 46.055H204.547L203.038 51.218C202.932 51.6681 202.693 51.8932 202.323 51.8932ZM208.836 30.1689L205.341 42.8778H212.53L208.995 30.1689H208.836ZM233.057 51.8932H228.45C226.49 51.8932 224.968 51.3504 223.882 50.2649C222.823 49.1793 222.294 47.6701 222.294 45.7373V32.5121C222.294 30.5528 222.823 29.0436 223.882 27.9846C224.968 26.899 226.49 26.3562 228.45 26.3562H233.057C234.989 26.3562 236.499 26.899 237.584 27.9846C238.67 29.0436 239.212 30.5528 239.212 32.5121V34.4185C239.212 34.895 238.974 35.1333 238.498 35.1333H235.995C235.545 35.1333 235.32 34.895 235.32 34.4185V32.671C235.32 30.7117 234.367 29.732 232.461 29.732H229.006C227.099 29.732 226.146 30.7117 226.146 32.671V45.5785C226.146 47.5377 227.099 48.5174 229.006 48.5174H232.461C234.367 48.5174 235.32 47.5377 235.32 45.5785V43.831C235.32 43.3544 235.545 43.1161 235.995 43.1161H238.498C238.974 43.1161 239.212 43.3544 239.212 43.831V45.7373C239.212 47.6701 238.67 49.1793 237.584 50.2649C236.499 51.3504 234.989 51.8932 233.057 51.8932ZM254.504 51.8932H249.897C247.938 51.8932 246.416 51.3504 245.33 50.2649C244.271 49.1793 243.741 47.6701 243.741 45.7373V32.5121C243.741 30.5528 244.271 29.0436 245.33 27.9846C246.416 26.899 247.938 26.3562 249.897 26.3562H254.504C256.437 26.3562 257.946 26.899 259.032 27.9846C260.117 29.0436 260.66 30.5528 260.66 32.5121V34.4185C260.66 34.895 260.422 35.1333 259.945 35.1333H257.443C256.993 35.1333 256.768 34.895 256.768 34.4185V32.671C256.768 30.7117 255.815 29.732 253.909 29.732H250.453C248.547 29.732 247.594 30.7117 247.594 32.671V45.5785C247.594 47.5377 248.547 48.5174 250.453 48.5174H253.909C255.815 48.5174 256.768 47.5377 256.768 45.5785V43.831C256.768 43.3544 256.993 43.1161 257.443 43.1161H259.945C260.422 43.1161 260.66 43.3544 260.66 43.831V45.7373C260.66 47.6701 260.117 49.1793 259.032 50.2649C257.946 51.3504 256.437 51.8932 254.504 51.8932ZM278.971 51.8932H266.262C265.812 51.8932 265.586 51.6681 265.586 51.218V27.0314C265.586 26.5813 265.812 26.3562 266.262 26.3562H278.971C279.394 26.3562 279.606 26.5813 279.606 27.0314V29.0569C279.606 29.507 279.394 29.732 278.971 29.732H269.915C269.598 29.732 269.439 29.8644 269.439 30.1292V36.8411C269.439 37.1059 269.598 37.2382 269.915 37.2382H277.58C278.057 37.2382 278.295 37.4633 278.295 37.9134V39.9389C278.295 40.389 278.057 40.614 277.58 40.614H269.915C269.598 40.614 269.439 40.7464 269.439 41.0112V48.0805C269.439 48.3718 269.598 48.5174 269.915 48.5174H278.971C279.394 48.5174 279.606 48.7424 279.606 49.1925V51.218C279.606 51.6681 279.394 51.8932 278.971 51.8932ZM284.192 45.6976V44.665C284.192 44.2149 284.417 43.9898 284.867 43.9898H287.409C287.859 43.9898 288.084 44.2149 288.084 44.665V45.3799C288.084 46.4919 288.322 47.2995 288.799 47.8025C289.302 48.2791 290.123 48.5174 291.261 48.5174H294.002C295.14 48.5174 295.961 48.2659 296.464 47.7628C296.967 47.2333 297.218 46.386 297.218 45.221V44.3076C297.218 43.4603 296.888 42.7984 296.226 42.3218C295.59 41.8187 294.796 41.501 293.843 41.3686C292.889 41.2098 291.844 40.998 290.705 40.7332C289.567 40.4684 288.521 40.1639 287.568 39.8197C286.614 39.4755 285.807 38.8269 285.145 37.8737C284.51 36.9205 284.192 35.7026 284.192 34.2199V32.5518C284.192 30.619 284.735 29.1098 285.82 28.0243C286.932 26.9123 288.455 26.3562 290.387 26.3562H294.597C296.557 26.3562 298.079 26.9123 299.165 28.0243C300.277 29.1098 300.833 30.619 300.833 32.5518V33.4256C300.833 33.8757 300.608 34.1007 300.157 34.1007H297.616C297.166 34.1007 296.94 33.8757 296.94 33.4256V32.9093C296.94 31.7708 296.689 30.9632 296.186 30.4866C295.709 29.9836 294.902 29.732 293.763 29.732H291.261C290.123 29.732 289.302 29.9968 288.799 30.5264C288.322 31.0294 288.084 31.9031 288.084 33.1476V34.3787C288.084 35.5702 288.944 36.3777 290.665 36.8014C291.433 36.9867 292.267 37.1456 293.168 37.278C294.094 37.4103 295.021 37.6089 295.948 37.8737C296.874 38.1385 297.722 38.4959 298.489 38.946C299.257 39.3696 299.879 40.0316 300.356 40.9318C300.833 41.8055 301.071 42.8778 301.071 44.1487V45.6976C301.071 47.6304 300.515 49.1528 299.403 50.2649C298.317 51.3504 296.808 51.8932 294.875 51.8932H290.427C288.494 51.8932 286.972 51.3504 285.86 50.2649C284.748 49.1528 284.192 47.6304 284.192 45.6976ZM305.95 45.6976V44.665C305.95 44.2149 306.175 43.9898 306.625 43.9898H309.167C309.617 43.9898 309.842 44.2149 309.842 44.665V45.3799C309.842 46.4919 310.08 47.2995 310.557 47.8025C311.06 48.2791 311.881 48.5174 313.019 48.5174H315.76C316.898 48.5174 317.719 48.2659 318.222 47.7628C318.725 47.2333 318.977 46.386 318.977 45.221V44.3076C318.977 43.4603 318.646 42.7984 317.984 42.3218C317.348 41.8187 316.554 41.501 315.601 41.3686C314.648 41.2098 313.602 40.998 312.463 40.7332C311.325 40.4684 310.279 40.1639 309.326 39.8197C308.373 39.4755 307.565 38.8269 306.903 37.8737C306.268 36.9205 305.95 35.7026 305.95 34.2199V32.5518C305.95 30.619 306.493 29.1098 307.578 28.0243C308.69 26.9123 310.213 26.3562 312.146 26.3562H316.355C318.315 26.3562 319.837 26.9123 320.923 28.0243C322.035 29.1098 322.591 30.619 322.591 32.5518V33.4256C322.591 33.8757 322.366 34.1007 321.915 34.1007H319.374C318.924 34.1007 318.699 33.8757 318.699 33.4256V32.9093C318.699 31.7708 318.447 30.9632 317.944 30.4866C317.467 29.9836 316.66 29.732 315.521 29.732H313.019C311.881 29.732 311.06 29.9968 310.557 30.5264C310.08 31.0294 309.842 31.9031 309.842 33.1476V34.3787C309.842 35.5702 310.703 36.3777 312.424 36.8014C313.191 36.9867 314.025 37.1456 314.926 37.278C315.852 37.4103 316.779 37.6089 317.706 37.8737C318.632 38.1385 319.48 38.4959 320.247 38.946C321.015 39.3696 321.637 40.0316 322.114 40.9318C322.591 41.8055 322.829 42.8778 322.829 44.1487V45.6976C322.829 47.6304 322.273 49.1528 321.161 50.2649C320.075 51.3504 318.566 51.8932 316.633 51.8932H312.185C310.252 51.8932 308.73 51.3504 307.618 50.2649C306.506 49.1528 305.95 47.6304 305.95 45.6976Z" fill="black"/>
<path d="M1205.61 17.6777V23.7244C1205.61 23.8369 1205.55 23.8932 1205.44 23.8932H1204.81C1204.7 23.8932 1204.64 23.8369 1204.64 23.7244V17.6777C1204.64 17.5652 1204.7 17.509 1204.81 17.509H1205.44C1205.55 17.509 1205.61 17.5652 1205.61 17.6777ZM1211.47 17.509H1212.59C1212.7 17.509 1212.76 17.5652 1212.76 17.6777V23.7244C1212.76 23.8369 1212.7 23.8932 1212.59 23.8932H1211.97C1211.86 23.8932 1211.8 23.8369 1211.8 23.7244V18.7103H1211.76L1210.47 22.3443C1210.43 22.4502 1210.36 22.5032 1210.25 22.5032H1209.62C1209.52 22.5032 1209.45 22.4502 1209.41 22.3443L1208.09 18.7004H1208.05V23.7244C1208.05 23.7906 1208.04 23.8369 1208.01 23.8634C1207.99 23.8833 1207.95 23.8932 1207.88 23.8932H1207.28C1207.16 23.8932 1207.11 23.8369 1207.11 23.7244V17.6777C1207.11 17.5652 1207.16 17.509 1207.28 17.509H1208.39C1208.46 17.509 1208.51 17.5454 1208.55 17.6182L1209.91 21.4507H1209.96L1211.33 17.6182C1211.34 17.5454 1211.39 17.509 1211.47 17.509ZM1214.55 23.8932H1213.84C1213.74 23.8932 1213.71 23.8369 1213.74 23.7244L1215.46 17.6777C1215.5 17.5652 1215.58 17.509 1215.7 17.509H1216.7C1216.83 17.509 1216.91 17.5652 1216.93 17.6777L1218.66 23.7244C1218.69 23.8369 1218.65 23.8932 1218.55 23.8932H1217.85C1217.79 23.8932 1217.75 23.8833 1217.72 23.8634C1217.7 23.8369 1217.68 23.7906 1217.67 23.7244L1217.29 22.4337H1215.11L1214.73 23.7244C1214.7 23.8369 1214.64 23.8932 1214.55 23.8932ZM1216.18 18.4621L1215.31 21.6393H1217.1L1216.22 18.4621H1216.18ZM1222.15 23.8932H1221.08C1220.59 23.8932 1220.21 23.7575 1219.94 23.4861C1219.68 23.2147 1219.54 22.8374 1219.54 22.3542V19.0479C1219.54 18.5581 1219.68 18.1808 1219.94 17.916C1220.21 17.6446 1220.59 17.509 1221.08 17.509H1222.15C1222.64 17.509 1223.01 17.6446 1223.28 17.916C1223.55 18.1808 1223.68 18.5581 1223.68 19.0479V19.4054C1223.68 19.5245 1223.63 19.5841 1223.52 19.5841H1222.89C1222.78 19.5841 1222.72 19.5245 1222.72 19.4054V19.0876C1222.72 18.5978 1222.48 18.3529 1222.01 18.3529H1221.22C1220.75 18.3529 1220.51 18.5978 1220.51 19.0876V22.3145C1220.51 22.8043 1220.75 23.0492 1221.22 23.0492H1222.01C1222.48 23.0492 1222.72 22.8043 1222.72 22.3145V21.4209C1222.72 21.3547 1222.68 21.3216 1222.61 21.3216H1221.81C1221.7 21.3216 1221.64 21.2654 1221.64 21.1528V20.6465C1221.64 20.5339 1221.7 20.4777 1221.81 20.4777H1223.48C1223.61 20.4777 1223.68 20.5472 1223.68 20.6862V22.3542C1223.68 22.8374 1223.55 23.2147 1223.28 23.4861C1223.01 23.7575 1222.63 23.8932 1222.15 23.8932ZM1228.38 23.8932H1225.2C1225.09 23.8932 1225.03 23.8369 1225.03 23.7244V17.6777C1225.03 17.5652 1225.09 17.509 1225.2 17.509H1228.38C1228.49 17.509 1228.54 17.5652 1228.54 17.6777V18.1841C1228.54 18.2966 1228.49 18.3529 1228.38 18.3529H1226.12C1226.04 18.3529 1226 18.386 1226 18.4522V20.1302C1226 20.1964 1226.04 20.2295 1226.12 20.2295H1228.03C1228.15 20.2295 1228.21 20.2857 1228.21 20.3982V20.9046C1228.21 21.0171 1228.15 21.0734 1228.03 21.0734H1226.12C1226.04 21.0734 1226 21.1065 1226 21.1727V22.94C1226 23.0128 1226.04 23.0492 1226.12 23.0492H1228.38C1228.49 23.0492 1228.54 23.1055 1228.54 23.218V23.7244C1228.54 23.8369 1228.49 23.8932 1228.38 23.8932ZM1233.92 23.8932H1233.29C1233.17 23.8932 1233.11 23.8369 1233.11 23.7244V18.4522C1233.11 18.386 1233.08 18.3529 1233.01 18.3529H1231.76C1231.64 18.3529 1231.58 18.2966 1231.58 18.1841V17.6777C1231.58 17.5652 1231.64 17.509 1231.76 17.509H1235.45C1235.57 17.509 1235.63 17.5652 1235.63 17.6777V18.1841C1235.63 18.2966 1235.57 18.3529 1235.45 18.3529H1234.2C1234.12 18.3529 1234.09 18.386 1234.09 18.4522V23.7244C1234.09 23.8369 1234.03 23.8932 1233.92 23.8932ZM1238.59 23.8932H1237.96C1237.84 23.8932 1237.79 23.8369 1237.79 23.7244V21.5301L1235.93 17.6877C1235.9 17.6347 1235.9 17.5917 1235.93 17.5586C1235.96 17.5255 1235.99 17.509 1236.04 17.509H1236.83C1236.92 17.509 1236.99 17.5652 1237.03 17.6777L1238.25 20.4082H1238.31L1239.51 17.6777C1239.55 17.5652 1239.62 17.509 1239.71 17.509H1240.51C1240.56 17.509 1240.6 17.5255 1240.62 17.5586C1240.64 17.5917 1240.64 17.6347 1240.62 17.6877L1238.76 21.5301V23.7244C1238.76 23.8369 1238.7 23.8932 1238.59 23.8932ZM1242.31 23.8932H1241.69C1241.57 23.8932 1241.52 23.8369 1241.52 23.7244V17.6777C1241.52 17.5652 1241.57 17.509 1241.69 17.509H1244.05C1244.53 17.509 1244.91 17.6446 1245.18 17.916C1245.45 18.1808 1245.59 18.5581 1245.59 19.0479V20.0805C1245.59 20.5637 1245.45 20.941 1245.18 21.2124C1244.91 21.4838 1244.53 21.6195 1244.05 21.6195H1242.6C1242.52 21.6195 1242.48 21.6526 1242.48 21.7188V23.7244C1242.48 23.8369 1242.42 23.8932 1242.31 23.8932ZM1242.59 20.7656H1243.91C1244.38 20.7656 1244.62 20.5207 1244.62 20.0309V19.0876C1244.62 18.5978 1244.38 18.3529 1243.91 18.3529H1242.59C1242.52 18.3529 1242.48 18.386 1242.48 18.4522V20.6663C1242.48 20.7325 1242.52 20.7656 1242.59 20.7656ZM1250.11 23.8932H1246.93C1246.82 23.8932 1246.76 23.8369 1246.76 23.7244V17.6777C1246.76 17.5652 1246.82 17.509 1246.93 17.509H1250.11C1250.22 17.509 1250.27 17.5652 1250.27 17.6777V18.1841C1250.27 18.2966 1250.22 18.3529 1250.11 18.3529H1247.85C1247.77 18.3529 1247.73 18.386 1247.73 18.4522V20.1302C1247.73 20.1964 1247.77 20.2295 1247.85 20.2295H1249.76C1249.88 20.2295 1249.94 20.2857 1249.94 20.3982V20.9046C1249.94 21.0171 1249.88 21.0734 1249.76 21.0734H1247.85C1247.77 21.0734 1247.73 21.1065 1247.73 21.1727V22.94C1247.73 23.0128 1247.77 23.0492 1247.85 23.0492H1250.11C1250.22 23.0492 1250.27 23.1055 1250.27 23.218V23.7244C1250.27 23.8369 1250.22 23.8932 1250.11 23.8932ZM1252.3 18.9883V20.1997C1252.3 20.3122 1252.25 20.3685 1252.14 20.3685H1251.46C1251.35 20.3685 1251.3 20.3056 1251.3 20.1798V18.9983C1251.3 18.8857 1251.35 18.8295 1251.46 18.8295H1252.14C1252.25 18.8295 1252.3 18.8824 1252.3 18.9883ZM1252.3 22.5131V23.7244C1252.3 23.8369 1252.25 23.8932 1252.14 23.8932H1251.46C1251.35 23.8932 1251.3 23.8336 1251.3 23.7145V22.5131C1251.3 22.4072 1251.35 22.3542 1251.46 22.3542H1252.14C1252.25 22.3542 1252.3 22.4072 1252.3 22.5131ZM1256.23 23.8932H1255.51C1255.42 23.8932 1255.38 23.8369 1255.41 23.7244L1257.14 17.6777C1257.17 17.5652 1257.25 17.509 1257.38 17.509H1258.37C1258.5 17.509 1258.58 17.5652 1258.61 17.6777L1260.34 23.7244C1260.36 23.8369 1260.33 23.8932 1260.23 23.8932H1259.52C1259.46 23.8932 1259.42 23.8833 1259.39 23.8634C1259.37 23.8369 1259.36 23.7906 1259.34 23.7244L1258.97 22.4337H1256.78L1256.4 23.7244C1256.38 23.8369 1256.32 23.8932 1256.23 23.8932ZM1257.85 18.4621L1256.98 21.6393H1258.78L1257.89 18.4621H1257.85ZM1262.11 23.8932H1261.49C1261.37 23.8932 1261.32 23.8369 1261.32 23.7244V17.6777C1261.32 17.5652 1261.37 17.509 1261.49 17.509H1263.81C1264.29 17.509 1264.67 17.648 1264.94 17.926C1265.22 18.1974 1265.36 18.5746 1265.36 19.0578V19.8919C1265.36 20.6531 1265.04 21.133 1264.42 21.3316V21.3713L1265.52 23.6946C1265.59 23.827 1265.55 23.8932 1265.39 23.8932H1264.77C1264.61 23.8932 1264.51 23.8369 1264.46 23.7244L1263.4 21.4408H1262.4C1262.32 21.4408 1262.28 21.4739 1262.28 21.5401V23.7244C1262.28 23.8369 1262.22 23.8932 1262.11 23.8932ZM1262.39 20.6465H1263.65C1264.14 20.6465 1264.39 20.4049 1264.39 19.9217V19.0876C1264.39 18.5978 1264.14 18.3529 1263.65 18.3529H1262.39C1262.32 18.3529 1262.28 18.386 1262.28 18.4522V20.5472C1262.28 20.6134 1262.32 20.6465 1262.39 20.6465ZM1271.07 17.509H1272.18C1272.29 17.509 1272.35 17.5652 1272.35 17.6777V23.7244C1272.35 23.8369 1272.29 23.8932 1272.18 23.8932H1271.56C1271.45 23.8932 1271.39 23.8369 1271.39 23.7244V18.7103H1271.36L1270.06 22.3443C1270.02 22.4502 1269.95 22.5032 1269.85 22.5032H1269.21C1269.11 22.5032 1269.04 22.4502 1269 22.3443L1267.68 18.7004H1267.64V23.7244C1267.64 23.7906 1267.63 23.8369 1267.6 23.8634C1267.58 23.8833 1267.54 23.8932 1267.47 23.8932H1266.87C1266.75 23.8932 1266.7 23.8369 1266.7 23.7244V17.6777C1266.7 17.5652 1266.75 17.509 1266.87 17.509H1267.98C1268.05 17.509 1268.11 17.5454 1268.14 17.6182L1269.5 21.4507H1269.55L1270.92 17.6182C1270.93 17.5454 1270.98 17.509 1271.07 17.509ZM1276.04 22.3443V22.0861C1276.04 21.9736 1276.1 21.9174 1276.21 21.9174H1276.85C1276.96 21.9174 1277.02 21.9736 1277.02 22.0861V22.2649C1277.02 22.5429 1277.08 22.7448 1277.19 22.8705C1277.32 22.9897 1277.53 23.0492 1277.81 23.0492H1278.5C1278.78 23.0492 1278.99 22.9864 1279.11 22.8606C1279.24 22.7282 1279.3 22.5164 1279.3 22.2251V21.9968C1279.3 21.785 1279.22 21.6195 1279.05 21.5003C1278.89 21.3746 1278.69 21.2951 1278.46 21.262C1278.22 21.2223 1277.96 21.1694 1277.67 21.1032C1277.39 21.037 1277.13 20.9609 1276.89 20.8748C1276.65 20.7888 1276.45 20.6266 1276.28 20.3883C1276.12 20.15 1276.04 19.8455 1276.04 19.4749V19.0578C1276.04 18.5746 1276.18 18.1974 1276.45 17.926C1276.73 17.648 1277.11 17.509 1277.59 17.509H1278.64C1279.13 17.509 1279.51 17.648 1279.79 17.926C1280.06 18.1974 1280.2 18.5746 1280.2 19.0578V19.2763C1280.2 19.3888 1280.15 19.4451 1280.03 19.4451H1279.4C1279.29 19.4451 1279.23 19.3888 1279.23 19.2763V19.1472C1279.23 18.8626 1279.17 18.6607 1279.04 18.5416C1278.92 18.4158 1278.72 18.3529 1278.44 18.3529H1277.81C1277.53 18.3529 1277.32 18.4191 1277.19 18.5515C1277.08 18.6772 1277.02 18.8957 1277.02 19.2068V19.5146C1277.02 19.8124 1277.23 20.0143 1277.66 20.1202C1277.85 20.1666 1278.06 20.2063 1278.29 20.2394C1278.52 20.2725 1278.75 20.3221 1278.98 20.3883C1279.21 20.4545 1279.43 20.5439 1279.62 20.6564C1279.81 20.7623 1279.96 20.9278 1280.08 21.1528C1280.2 21.3713 1280.26 21.6393 1280.26 21.9571V22.3443C1280.26 22.8275 1280.12 23.2081 1279.85 23.4861C1279.57 23.7575 1279.2 23.8932 1278.71 23.8932H1277.6C1277.12 23.8932 1276.74 23.7575 1276.46 23.4861C1276.18 23.2081 1276.04 22.8275 1276.04 22.3443ZM1282.61 17.6777V23.7244C1282.61 23.8369 1282.56 23.8932 1282.45 23.8932H1281.82C1281.71 23.8932 1281.65 23.8369 1281.65 23.7244V17.6777C1281.65 17.5652 1281.71 17.509 1281.82 17.509H1282.45C1282.56 17.509 1282.61 17.5652 1282.61 17.6777ZM1287.5 23.8932H1284.28C1284.17 23.8932 1284.11 23.8369 1284.11 23.7244V17.6777C1284.11 17.5652 1284.17 17.509 1284.28 17.509H1284.91C1285.02 17.509 1285.08 17.5652 1285.08 17.6777V22.9301C1285.08 22.9963 1285.12 23.0294 1285.2 23.0294H1287.5C1287.61 23.0294 1287.67 23.089 1287.67 23.2081V23.7244C1287.67 23.8369 1287.61 23.8932 1287.5 23.8932ZM1290.91 23.8932H1289.92C1289.81 23.8932 1289.74 23.8369 1289.71 23.7244L1288.07 17.6976C1288.03 17.5718 1288.08 17.509 1288.22 17.509H1288.92C1289.03 17.509 1289.09 17.5652 1289.11 17.6777L1290.39 22.8606H1290.43L1291.7 17.6777C1291.73 17.5652 1291.79 17.509 1291.9 17.509H1292.59C1292.73 17.509 1292.79 17.5718 1292.75 17.6976L1291.09 23.7244C1291.07 23.8369 1291.01 23.8932 1290.91 23.8932ZM1297.02 23.8932H1293.84C1293.73 23.8932 1293.67 23.8369 1293.67 23.7244V17.6777C1293.67 17.5652 1293.73 17.509 1293.84 17.509H1297.02C1297.13 17.509 1297.18 17.5652 1297.18 17.6777V18.1841C1297.18 18.2966 1297.13 18.3529 1297.02 18.3529H1294.76C1294.68 18.3529 1294.64 18.386 1294.64 18.4522V20.1302C1294.64 20.1964 1294.68 20.2295 1294.76 20.2295H1296.67C1296.79 20.2295 1296.85 20.2857 1296.85 20.3982V20.9046C1296.85 21.0171 1296.79 21.0734 1296.67 21.0734H1294.76C1294.68 21.0734 1294.64 21.1065 1294.64 21.1727V22.94C1294.64 23.0128 1294.68 23.0492 1294.76 23.0492H1297.02C1297.13 23.0492 1297.18 23.1055 1297.18 23.218V23.7244C1297.18 23.8369 1297.13 23.8932 1297.02 23.8932ZM1299.24 23.8932H1298.61C1298.5 23.8932 1298.44 23.8369 1298.44 23.7244V17.6777C1298.44 17.5652 1298.5 17.509 1298.61 17.509H1300.94C1301.42 17.509 1301.8 17.648 1302.07 17.926C1302.35 18.1974 1302.48 18.5746 1302.48 19.0578V19.8919C1302.48 20.6531 1302.17 21.133 1301.54 21.3316V21.3713L1302.64 23.6946C1302.72 23.827 1302.67 23.8932 1302.51 23.8932H1301.9C1301.74 23.8932 1301.64 23.8369 1301.59 23.7244L1300.53 21.4408H1299.53C1299.45 21.4408 1299.41 21.4739 1299.41 21.5401V23.7244C1299.41 23.8369 1299.35 23.8932 1299.24 23.8932ZM1299.52 20.6465H1300.78C1301.27 20.6465 1301.51 20.4049 1301.51 19.9217V19.0876C1301.51 18.5978 1301.27 18.3529 1300.78 18.3529H1299.52C1299.44 18.3529 1299.41 18.386 1299.41 18.4522V20.5472C1299.41 20.6134 1299.44 20.6465 1299.52 20.6465ZM1306.99 23.8932H1306.36C1306.25 23.8932 1306.19 23.8369 1306.19 23.7244V17.6777C1306.19 17.5652 1306.25 17.509 1306.36 17.509H1306.99C1307.1 17.509 1307.15 17.5652 1307.15 17.6777V20.8252H1307.18C1307.25 20.6465 1307.34 20.481 1307.44 20.3287L1309.34 17.6777C1309.41 17.5652 1309.52 17.509 1309.66 17.509H1310.39C1310.53 17.509 1310.55 17.5718 1310.46 17.6976L1308.52 20.3287L1310.71 23.6946C1310.79 23.827 1310.75 23.8932 1310.59 23.8932H1310.03C1309.85 23.8932 1309.73 23.8369 1309.66 23.7244L1307.94 21.0337L1307.15 21.9571V23.7244C1307.15 23.8369 1307.1 23.8932 1306.99 23.8932ZM1314.98 23.8932H1311.8C1311.69 23.8932 1311.63 23.8369 1311.63 23.7244V17.6777C1311.63 17.5652 1311.69 17.509 1311.8 17.509H1314.98C1315.08 17.509 1315.14 17.5652 1315.14 17.6777V18.1841C1315.14 18.2966 1315.08 18.3529 1314.98 18.3529H1312.71C1312.63 18.3529 1312.59 18.386 1312.59 18.4522V20.1302C1312.59 20.1964 1312.63 20.2295 1312.71 20.2295H1314.63C1314.75 20.2295 1314.81 20.2857 1314.81 20.3982V20.9046C1314.81 21.0171 1314.75 21.0734 1314.63 21.0734H1312.71C1312.63 21.0734 1312.59 21.1065 1312.59 21.1727V22.94C1312.59 23.0128 1312.63 23.0492 1312.71 23.0492H1314.98C1315.08 23.0492 1315.14 23.1055 1315.14 23.218V23.7244C1315.14 23.8369 1315.08 23.8932 1314.98 23.8932ZM1317.2 23.8932H1316.57C1316.46 23.8932 1316.4 23.8369 1316.4 23.7244V17.6777C1316.4 17.5652 1316.46 17.509 1316.57 17.509H1318.89C1319.38 17.509 1319.75 17.648 1320.02 17.926C1320.3 18.1974 1320.44 18.5746 1320.44 19.0578V19.8919C1320.44 20.6531 1320.13 21.133 1319.5 21.3316V21.3713L1320.6 23.6946C1320.67 23.827 1320.63 23.8932 1320.47 23.8932H1319.86C1319.7 23.8932 1319.59 23.8369 1319.55 23.7244L1318.49 21.4408H1317.48C1317.4 21.4408 1317.36 21.4739 1317.36 21.5401V23.7244C1317.36 23.8369 1317.31 23.8932 1317.2 23.8932ZM1317.47 20.6465H1318.73C1319.22 20.6465 1319.47 20.4049 1319.47 19.9217V19.0876C1319.47 18.5978 1319.22 18.3529 1318.73 18.3529H1317.47C1317.4 18.3529 1317.36 18.386 1317.36 18.4522V20.5472C1317.36 20.6134 1317.4 20.6465 1317.47 20.6465ZM1322.57 23.8932H1321.95C1321.84 23.8932 1321.78 23.8369 1321.78 23.7244V17.6777C1321.78 17.5652 1321.84 17.509 1321.95 17.509H1322.51C1322.61 17.509 1322.69 17.5454 1322.73 17.6182L1325.13 21.9372H1325.17V17.6777C1325.17 17.5652 1325.22 17.509 1325.34 17.509H1325.95C1326.06 17.509 1326.12 17.5652 1326.12 17.6777V23.7244C1326.12 23.8369 1326.06 23.8932 1325.95 23.8932H1325.42C1325.31 23.8932 1325.22 23.8402 1325.16 23.7343L1322.78 19.4649H1322.74V23.7244C1322.74 23.8369 1322.68 23.8932 1322.57 23.8932ZM1327.92 23.8932H1327.2C1327.11 23.8932 1327.08 23.8369 1327.1 23.7244L1328.83 17.6777C1328.86 17.5652 1328.94 17.509 1329.07 17.509H1330.06C1330.2 17.509 1330.27 17.5652 1330.3 17.6777L1332.03 23.7244C1332.06 23.8369 1332.02 23.8932 1331.92 23.8932H1331.21C1331.16 23.8932 1331.11 23.8833 1331.09 23.8634C1331.07 23.8369 1331.05 23.7906 1331.04 23.7244L1330.66 22.4337H1328.47L1328.1 23.7244C1328.07 23.8369 1328.01 23.8932 1327.92 23.8932ZM1329.55 18.4621L1328.67 21.6393H1330.47L1329.59 18.4621H1329.55ZM1336.4 23.8932H1333.18C1333.07 23.8932 1333.01 23.8369 1333.01 23.7244V17.6777C1333.01 17.5652 1333.07 17.509 1333.18 17.509H1333.8C1333.92 17.509 1333.97 17.5652 1333.97 17.6777V22.9301C1333.97 22.9963 1334.01 23.0294 1334.09 23.0294H1336.4C1336.51 23.0294 1336.56 23.089 1336.56 23.2081V23.7244C1336.56 23.8369 1336.51 23.8932 1336.4 23.8932ZM1340.86 17.6777V23.7244C1340.86 23.8369 1340.8 23.8932 1340.69 23.8932H1340.06C1339.95 23.8932 1339.9 23.8369 1339.9 23.7244V17.6777C1339.9 17.5652 1339.95 17.509 1340.06 17.509H1340.69C1340.8 17.509 1340.86 17.5652 1340.86 17.6777ZM1346.73 17.509H1347.84C1347.95 17.509 1348.01 17.5652 1348.01 17.6777V23.7244C1348.01 23.8369 1347.95 23.8932 1347.84 23.8932H1347.22C1347.11 23.8932 1347.05 23.8369 1347.05 23.7244V18.7103H1347.01L1345.72 22.3443C1345.68 22.4502 1345.61 22.5032 1345.5 22.5032H1344.87C1344.77 22.5032 1344.7 22.4502 1344.66 22.3443L1343.34 18.7004H1343.3V23.7244C1343.3 23.7906 1343.29 23.8369 1343.26 23.8634C1343.24 23.8833 1343.2 23.8932 1343.13 23.8932H1342.53C1342.41 23.8932 1342.36 23.8369 1342.36 23.7244V17.6777C1342.36 17.5652 1342.41 17.509 1342.53 17.509H1343.64C1343.71 17.509 1343.76 17.5454 1343.8 17.6182L1345.16 21.4507H1345.21L1346.58 17.6182C1346.59 17.5454 1346.64 17.509 1346.73 17.509ZM1349.8 23.8932H1349.09C1348.99 23.8932 1348.96 23.8369 1348.99 23.7244L1350.72 17.6777C1350.75 17.5652 1350.83 17.509 1350.95 17.509H1351.95C1352.08 17.509 1352.16 17.5652 1352.19 17.6777L1353.91 23.7244C1353.94 23.8369 1353.9 23.8932 1353.8 23.8932H1353.1C1353.04 23.8932 1353 23.8833 1352.97 23.8634C1352.95 23.8369 1352.93 23.7906 1352.92 23.7244L1352.54 22.4337H1350.36L1349.98 23.7244C1349.95 23.8369 1349.9 23.8932 1349.8 23.8932ZM1351.43 18.4621L1350.56 21.6393H1352.35L1351.47 18.4621H1351.43ZM1357.4 23.8932H1356.33C1355.84 23.8932 1355.46 23.7575 1355.19 23.4861C1354.93 23.2147 1354.8 22.8374 1354.8 22.3542V19.0479C1354.8 18.5581 1354.93 18.1808 1355.19 17.916C1355.46 17.6446 1355.84 17.509 1356.33 17.509H1357.4C1357.89 17.509 1358.26 17.6446 1358.53 17.916C1358.8 18.1808 1358.94 18.5581 1358.94 19.0479V19.4054C1358.94 19.5245 1358.88 19.5841 1358.77 19.5841H1358.14C1358.03 19.5841 1357.97 19.5245 1357.97 19.4054V19.0876C1357.97 18.5978 1357.73 18.3529 1357.26 18.3529H1356.47C1356 18.3529 1355.76 18.5978 1355.76 19.0876V22.3145C1355.76 22.8043 1356 23.0492 1356.47 23.0492H1357.26C1357.73 23.0492 1357.97 22.8043 1357.97 22.3145V21.4209C1357.97 21.3547 1357.94 21.3216 1357.86 21.3216H1357.06C1356.95 21.3216 1356.89 21.2654 1356.89 21.1528V20.6465C1356.89 20.5339 1356.95 20.4777 1357.06 20.4777H1358.73C1358.87 20.4777 1358.94 20.5472 1358.94 20.6862V22.3542C1358.94 22.8374 1358.8 23.2147 1358.53 23.4861C1358.26 23.7575 1357.88 23.8932 1357.4 23.8932ZM1363.63 23.8932H1360.45C1360.34 23.8932 1360.29 23.8369 1360.29 23.7244V17.6777C1360.29 17.5652 1360.34 17.509 1360.45 17.509H1363.63C1363.74 17.509 1363.79 17.5652 1363.79 17.6777V18.1841C1363.79 18.2966 1363.74 18.3529 1363.63 18.3529H1361.37C1361.29 18.3529 1361.25 18.386 1361.25 18.4522V20.1302C1361.25 20.1964 1361.29 20.2295 1361.37 20.2295H1363.28C1363.4 20.2295 1363.46 20.2857 1363.46 20.3982V20.9046C1363.46 21.0171 1363.4 21.0734 1363.28 21.0734H1361.37C1361.29 21.0734 1361.25 21.1065 1361.25 21.1727V22.94C1361.25 23.0128 1361.29 23.0492 1361.37 23.0492H1363.63C1363.74 23.0492 1363.79 23.1055 1363.79 23.218V23.7244C1363.79 23.8369 1363.74 23.8932 1363.63 23.8932Z" fill="#4A4A4A"/>
<path d="M1206.08 33.1068H1206.04C1205.45 33.1068 1205.15 33.4841 1205.15 34.2387V37.962C1205.15 38.7166 1205.46 39.0939 1206.06 39.0939H1206.08C1206.19 39.0939 1206.24 39.1436 1206.24 39.2429V39.6698C1206.24 39.7228 1206.23 39.7558 1206.21 39.7691C1206.19 39.7889 1206.15 39.7989 1206.08 39.7989H1206.04C1205.51 39.7989 1205.1 39.6367 1204.79 39.3124C1204.5 38.9946 1204.35 38.5081 1204.35 37.8528V34.338C1204.35 33.6893 1204.5 33.2061 1204.8 32.8884C1205.11 32.5641 1205.52 32.4019 1206.05 32.4019H1206.08C1206.15 32.4019 1206.19 32.4118 1206.21 32.4317C1206.23 32.4449 1206.24 32.478 1206.24 32.531V32.9579C1206.24 33.0572 1206.19 33.1068 1206.08 33.1068ZM1210.93 38.7861H1207.71C1207.6 38.7861 1207.54 38.7299 1207.54 38.6173V32.5707C1207.54 32.4582 1207.6 32.4019 1207.71 32.4019H1208.34C1208.45 32.4019 1208.51 32.4582 1208.51 32.5707V37.823C1208.51 37.8892 1208.55 37.9223 1208.62 37.9223H1210.93C1211.04 37.9223 1211.1 37.9819 1211.1 38.101V38.6173C1211.1 38.7299 1211.04 38.7861 1210.93 38.7861ZM1211.8 38.6173V37.7039C1211.8 37.2935 1211.98 36.9493 1212.33 36.6713L1214.21 35.1423C1214.52 34.8907 1214.68 34.5995 1214.68 34.2685V33.9409C1214.68 33.4643 1214.44 33.226 1213.94 33.226H1213.45C1213.2 33.226 1213.02 33.2823 1212.91 33.3948C1212.79 33.5073 1212.74 33.6893 1212.74 33.9409V34.3082C1212.74 34.4274 1212.68 34.487 1212.57 34.487H1211.93C1211.82 34.487 1211.76 34.4274 1211.76 34.3082V33.921C1211.76 33.4378 1211.9 33.0638 1212.17 32.7991C1212.44 32.5343 1212.82 32.4019 1213.31 32.4019H1214.09C1214.57 32.4019 1214.95 32.5343 1215.22 32.7991C1215.49 33.0638 1215.63 33.4378 1215.63 33.921V34.3281C1215.63 34.8444 1215.42 35.268 1215.02 35.599L1213.11 37.1578C1212.96 37.2836 1212.89 37.4325 1212.89 37.6046V37.9223H1215.47C1215.59 37.9223 1215.65 37.9786 1215.65 38.0911V38.6173C1215.65 38.7299 1215.59 38.7861 1215.47 38.7861H1211.98C1211.86 38.7861 1211.8 38.7299 1211.8 38.6173ZM1218.4 37.9422H1219.1C1219.58 37.9422 1219.82 37.6973 1219.82 37.2074V33.9806C1219.82 33.4908 1219.58 33.2458 1219.1 33.2458H1218.4C1217.92 33.2458 1217.68 33.4908 1217.68 33.9806V37.2074C1217.68 37.6973 1217.92 37.9422 1218.4 37.9422ZM1219.24 38.7861H1218.25C1217.76 38.7861 1217.38 38.6504 1217.11 38.3791C1216.84 38.1077 1216.7 37.7304 1216.7 37.2472V33.9409C1216.7 33.451 1216.84 33.0737 1217.11 32.809C1217.38 32.5376 1217.76 32.4019 1218.25 32.4019H1219.24C1219.73 32.4019 1220.1 32.5376 1220.38 32.809C1220.65 33.0737 1220.78 33.451 1220.78 33.9409V37.2472C1220.78 37.7304 1220.65 38.1077 1220.38 38.3791C1220.1 38.6504 1219.73 38.7861 1219.24 38.7861ZM1227.05 38.7861H1225.9C1225.41 38.7861 1225.03 38.6504 1224.76 38.3791C1224.5 38.1077 1224.36 37.7304 1224.36 37.2472V33.9409C1224.36 33.451 1224.5 33.0737 1224.76 32.809C1225.03 32.5376 1225.41 32.4019 1225.9 32.4019H1227.05C1227.54 32.4019 1227.91 32.5376 1228.19 32.809C1228.46 33.0737 1228.59 33.451 1228.59 33.9409V34.4174C1228.59 34.5366 1228.53 34.5962 1228.41 34.5962H1227.79C1227.68 34.5962 1227.62 34.5366 1227.62 34.4174V33.9806C1227.62 33.4908 1227.38 33.2458 1226.9 33.2458H1226.04C1225.56 33.2458 1225.33 33.4908 1225.33 33.9806V37.2074C1225.33 37.6973 1225.56 37.9422 1226.04 37.9422H1226.9C1227.38 37.9422 1227.62 37.6973 1227.62 37.2074V36.7706C1227.62 36.6514 1227.68 36.5919 1227.79 36.5919H1228.41C1228.53 36.5919 1228.59 36.6514 1228.59 36.7706V37.2472C1228.59 37.7304 1228.46 38.1077 1228.19 38.3791C1227.91 38.6504 1227.54 38.7861 1227.05 38.7861ZM1231.4 37.9422H1232.27C1232.75 37.9422 1232.99 37.6973 1232.99 37.2074V33.9806C1232.99 33.4908 1232.75 33.2458 1232.27 33.2458H1231.4C1230.93 33.2458 1230.69 33.4908 1230.69 33.9806V37.2074C1230.69 37.6973 1230.93 37.9422 1231.4 37.9422ZM1232.42 38.7861H1231.26C1230.77 38.7861 1230.39 38.6504 1230.12 38.3791C1229.86 38.1077 1229.72 37.7304 1229.72 37.2472V33.9409C1229.72 33.451 1229.86 33.0737 1230.12 32.809C1230.39 32.5376 1230.77 32.4019 1231.26 32.4019H1232.42C1232.91 32.4019 1233.29 32.5376 1233.56 32.809C1233.83 33.0737 1233.96 33.451 1233.96 33.9409V37.2472C1233.96 37.7304 1233.83 38.1077 1233.56 38.3791C1233.29 38.6504 1232.91 38.7861 1232.42 38.7861ZM1239.67 32.4019H1240.78C1240.9 32.4019 1240.95 32.4582 1240.95 32.5707V38.6173C1240.95 38.7299 1240.9 38.7861 1240.78 38.7861H1240.17C1240.06 38.7861 1240 38.7299 1240 38.6173V33.6033H1239.96L1238.67 37.2372C1238.63 37.3431 1238.56 37.3961 1238.45 37.3961H1237.81C1237.72 37.3961 1237.65 37.3431 1237.61 37.2372L1236.29 33.5934H1236.25V38.6173C1236.25 38.6835 1236.23 38.7299 1236.21 38.7563C1236.19 38.7762 1236.14 38.7861 1236.08 38.7861H1235.47C1235.36 38.7861 1235.3 38.7299 1235.3 38.6173V32.5707C1235.3 32.4582 1235.36 32.4019 1235.47 32.4019H1236.58C1236.66 32.4019 1236.71 32.4383 1236.74 32.5111L1238.1 36.3436H1238.15L1239.52 32.5111C1239.54 32.4383 1239.59 32.4019 1239.67 32.4019ZM1243.19 38.7861H1242.57C1242.46 38.7861 1242.4 38.7299 1242.4 38.6173V32.5707C1242.4 32.4582 1242.46 32.4019 1242.57 32.4019H1244.93C1245.42 32.4019 1245.79 32.5376 1246.06 32.809C1246.34 33.0737 1246.47 33.451 1246.47 33.9409V34.9735C1246.47 35.4567 1246.34 35.834 1246.06 36.1053C1245.79 36.3767 1245.42 36.5124 1244.93 36.5124H1243.48C1243.4 36.5124 1243.36 36.5455 1243.36 36.6117V38.6173C1243.36 38.7299 1243.31 38.7861 1243.19 38.7861ZM1243.47 35.6586H1244.79C1245.26 35.6586 1245.5 35.4136 1245.5 34.9238V33.9806C1245.5 33.4908 1245.26 33.2458 1244.79 33.2458H1243.47C1243.4 33.2458 1243.36 33.2789 1243.36 33.3451V35.5593C1243.36 35.6255 1243.4 35.6586 1243.47 35.6586ZM1248.44 38.7861H1247.81C1247.7 38.7861 1247.65 38.7299 1247.65 38.6173V32.5707C1247.65 32.4582 1247.7 32.4019 1247.81 32.4019H1250.14C1250.62 32.4019 1251 32.5409 1251.27 32.8189C1251.55 33.0903 1251.69 33.4676 1251.69 33.9508V34.7848C1251.69 35.546 1251.37 36.0259 1250.74 36.2245V36.2642L1251.85 38.5876C1251.92 38.7199 1251.88 38.7861 1251.72 38.7861H1251.1C1250.94 38.7861 1250.84 38.7299 1250.79 38.6173L1249.73 36.3337H1248.73C1248.65 36.3337 1248.61 36.3668 1248.61 36.433V38.6173C1248.61 38.7299 1248.55 38.7861 1248.44 38.7861ZM1248.72 35.5394H1249.98C1250.47 35.5394 1250.71 35.2978 1250.71 34.8146V33.9806C1250.71 33.4908 1250.47 33.2458 1249.98 33.2458H1248.72C1248.65 33.2458 1248.61 33.2789 1248.61 33.3451V35.4401C1248.61 35.5063 1248.65 35.5394 1248.72 35.5394ZM1256.37 38.7861H1253.2C1253.08 38.7861 1253.03 38.7299 1253.03 38.6173V32.5707C1253.03 32.4582 1253.08 32.4019 1253.2 32.4019H1256.37C1256.48 32.4019 1256.53 32.4582 1256.53 32.5707V33.0771C1256.53 33.1896 1256.48 33.2458 1256.37 33.2458H1254.11C1254.03 33.2458 1253.99 33.2789 1253.99 33.3451V35.0231C1253.99 35.0893 1254.03 35.1224 1254.11 35.1224H1256.03C1256.14 35.1224 1256.2 35.1787 1256.2 35.2912V35.7976C1256.2 35.9101 1256.14 35.9663 1256.03 35.9663H1254.11C1254.03 35.9663 1253.99 35.9994 1253.99 36.0656V37.833C1253.99 37.9058 1254.03 37.9422 1254.11 37.9422H1256.37C1256.48 37.9422 1256.53 37.9984 1256.53 38.111V38.6173C1256.53 38.7299 1256.48 38.7861 1256.37 38.7861ZM1257.68 37.2372V36.9791C1257.68 36.8666 1257.73 36.8103 1257.85 36.8103H1258.48C1258.6 36.8103 1258.65 36.8666 1258.65 36.9791V37.1578C1258.65 37.4358 1258.71 37.6377 1258.83 37.7635C1258.96 37.8826 1259.16 37.9422 1259.45 37.9422H1260.13C1260.42 37.9422 1260.62 37.8793 1260.75 37.7535C1260.87 37.6212 1260.94 37.4093 1260.94 37.1181V36.8897C1260.94 36.6779 1260.85 36.5124 1260.69 36.3933C1260.53 36.2675 1260.33 36.1881 1260.09 36.155C1259.85 36.1153 1259.59 36.0623 1259.31 35.9961C1259.02 35.9299 1258.76 35.8538 1258.52 35.7678C1258.28 35.6817 1258.08 35.5195 1257.92 35.2813C1257.76 35.043 1257.68 34.7385 1257.68 34.3678V33.9508C1257.68 33.4676 1257.81 33.0903 1258.09 32.8189C1258.36 32.5409 1258.74 32.4019 1259.23 32.4019H1260.28C1260.77 32.4019 1261.15 32.5409 1261.42 32.8189C1261.7 33.0903 1261.84 33.4676 1261.84 33.9508V34.1692C1261.84 34.2818 1261.78 34.338 1261.67 34.338H1261.03C1260.92 34.338 1260.87 34.2818 1260.87 34.1692V34.0402C1260.87 33.7555 1260.8 33.5536 1260.68 33.4345C1260.56 33.3087 1260.36 33.2458 1260.07 33.2458H1259.45C1259.16 33.2458 1258.96 33.312 1258.83 33.4444C1258.71 33.5702 1258.65 33.7886 1258.65 34.0997V34.4075C1258.65 34.7054 1258.87 34.9073 1259.3 35.0132C1259.49 35.0595 1259.7 35.0992 1259.92 35.1323C1260.15 35.1654 1260.39 35.2151 1260.62 35.2813C1260.85 35.3474 1261.06 35.4368 1261.25 35.5493C1261.44 35.6552 1261.6 35.8207 1261.72 36.0458C1261.84 36.2642 1261.9 36.5323 1261.9 36.85V37.2372C1261.9 37.7204 1261.76 38.101 1261.48 38.3791C1261.21 38.6504 1260.83 38.7861 1260.35 38.7861H1259.24C1258.75 38.7861 1258.37 38.6504 1258.1 38.3791C1257.82 38.101 1257.68 37.7204 1257.68 37.2372ZM1263.12 37.2372V36.9791C1263.12 36.8666 1263.17 36.8103 1263.29 36.8103H1263.92C1264.03 36.8103 1264.09 36.8666 1264.09 36.9791V37.1578C1264.09 37.4358 1264.15 37.6377 1264.27 37.7635C1264.4 37.8826 1264.6 37.9422 1264.89 37.9422H1265.57C1265.85 37.9422 1266.06 37.8793 1266.19 37.7535C1266.31 37.6212 1266.37 37.4093 1266.37 37.1181V36.8897C1266.37 36.6779 1266.29 36.5124 1266.13 36.3933C1265.97 36.2675 1265.77 36.1881 1265.53 36.155C1265.29 36.1153 1265.03 36.0623 1264.75 35.9961C1264.46 35.9299 1264.2 35.8538 1263.96 35.7678C1263.72 35.6817 1263.52 35.5195 1263.36 35.2813C1263.2 35.043 1263.12 34.7385 1263.12 34.3678V33.9508C1263.12 33.4676 1263.25 33.0903 1263.52 32.8189C1263.8 32.5409 1264.18 32.4019 1264.67 32.4019H1265.72C1266.21 32.4019 1266.59 32.5409 1266.86 32.8189C1267.14 33.0903 1267.28 33.4676 1267.28 33.9508V34.1692C1267.28 34.2818 1267.22 34.338 1267.11 34.338H1266.47C1266.36 34.338 1266.31 34.2818 1266.31 34.1692V34.0402C1266.31 33.7555 1266.24 33.5536 1266.12 33.4345C1266 33.3087 1265.8 33.2458 1265.51 33.2458H1264.89C1264.6 33.2458 1264.4 33.312 1264.27 33.4444C1264.15 33.5702 1264.09 33.7886 1264.09 34.0997V34.4075C1264.09 34.7054 1264.31 34.9073 1264.74 35.0132C1264.93 35.0595 1265.14 35.0992 1265.36 35.1323C1265.59 35.1654 1265.83 35.2151 1266.06 35.2813C1266.29 35.3474 1266.5 35.4368 1266.69 35.5493C1266.88 35.6552 1267.04 35.8207 1267.16 36.0458C1267.28 36.2642 1267.34 36.5323 1267.34 36.85V37.2372C1267.34 37.7204 1267.2 38.101 1266.92 38.3791C1266.65 38.6504 1266.27 38.7861 1265.79 38.7861H1264.68C1264.19 38.7861 1263.81 38.6504 1263.53 38.3791C1263.26 38.101 1263.12 37.7204 1263.12 37.2372ZM1272.02 38.7861H1268.85C1268.73 38.7861 1268.68 38.7299 1268.68 38.6173V32.5707C1268.68 32.4582 1268.73 32.4019 1268.85 32.4019H1272.02C1272.13 32.4019 1272.18 32.4582 1272.18 32.5707V33.0771C1272.18 33.1896 1272.13 33.2458 1272.02 33.2458H1269.76C1269.68 33.2458 1269.64 33.2789 1269.64 33.3451V35.0231C1269.64 35.0893 1269.68 35.1224 1269.76 35.1224H1271.68C1271.79 35.1224 1271.85 35.1787 1271.85 35.2912V35.7976C1271.85 35.9101 1271.79 35.9663 1271.68 35.9663H1269.76C1269.68 35.9663 1269.64 35.9994 1269.64 36.0656V37.833C1269.64 37.9058 1269.68 37.9422 1269.76 37.9422H1272.02C1272.13 37.9422 1272.18 37.9984 1272.18 38.111V38.6173C1272.18 38.7299 1272.13 38.7861 1272.02 38.7861ZM1274.52 37.9422H1275.92C1276.4 37.9422 1276.63 37.6973 1276.63 37.2074V33.9806C1276.63 33.4908 1276.4 33.2458 1275.92 33.2458H1274.52C1274.45 33.2458 1274.41 33.2789 1274.41 33.3451V37.833C1274.41 37.9058 1274.45 37.9422 1274.52 37.9422ZM1273.45 38.6173V32.5707C1273.45 32.4582 1273.5 32.4019 1273.62 32.4019H1276.06C1276.54 32.4019 1276.92 32.5376 1277.19 32.809C1277.47 33.0737 1277.61 33.451 1277.61 33.9409V37.2472C1277.61 37.7304 1277.47 38.1077 1277.19 38.3791C1276.92 38.6504 1276.54 38.7861 1276.06 38.7861H1273.62C1273.5 38.7861 1273.45 38.7299 1273.45 38.6173ZM1278.71 39.6698V39.2429C1278.71 39.1436 1278.76 39.0939 1278.87 39.0939H1278.88C1279.18 39.0939 1279.4 38.9979 1279.56 38.806C1279.72 38.6207 1279.8 38.3393 1279.8 37.962V34.2387C1279.8 33.8614 1279.72 33.5801 1279.56 33.3948C1279.4 33.2028 1279.18 33.1068 1278.88 33.1068H1278.87C1278.76 33.1068 1278.71 33.0572 1278.71 32.9579V32.531C1278.71 32.4449 1278.76 32.4019 1278.87 32.4019H1278.88C1279.41 32.4019 1279.83 32.5641 1280.14 32.8884C1280.45 33.2061 1280.6 33.6893 1280.6 34.338V37.8528C1280.6 38.5081 1280.45 38.9946 1280.14 39.3124C1279.83 39.6367 1279.41 39.7989 1278.88 39.7989H1278.87C1278.76 39.7989 1278.71 39.7558 1278.71 39.6698Z" fill="#4A4A4A"/>
<path d="M1207.98 53.6797H1204.76C1204.65 53.6797 1204.59 53.6234 1204.59 53.5109V47.4642C1204.59 47.3517 1204.65 47.2955 1204.76 47.2955H1205.39C1205.5 47.2955 1205.56 47.3517 1205.56 47.4642V52.7166C1205.56 52.7828 1205.6 52.8159 1205.68 52.8159H1207.98C1208.09 52.8159 1208.15 52.8755 1208.15 52.9946V53.5109C1208.15 53.6234 1208.09 53.6797 1207.98 53.6797ZM1210.64 52.8357H1211.51C1211.99 52.8357 1212.23 52.5908 1212.23 52.101V48.8741C1212.23 48.3843 1211.99 48.1394 1211.51 48.1394H1210.64C1210.17 48.1394 1209.93 48.3843 1209.93 48.8741V52.101C1209.93 52.5908 1210.17 52.8357 1210.64 52.8357ZM1211.66 53.6797H1210.5C1210.01 53.6797 1209.63 53.544 1209.36 53.2726C1209.1 53.0012 1208.97 52.6239 1208.97 52.1407V48.8344C1208.97 48.3446 1209.1 47.9673 1209.36 47.7025C1209.63 47.4311 1210.01 47.2955 1210.5 47.2955H1211.66C1212.15 47.2955 1212.53 47.4311 1212.8 47.7025C1213.07 47.9673 1213.21 48.3446 1213.21 48.8344V52.1407C1213.21 52.6239 1213.07 53.0012 1212.8 53.2726C1212.53 53.544 1212.15 53.6797 1211.66 53.6797ZM1214.89 53.6797H1214.18C1214.08 53.6797 1214.05 53.6234 1214.08 53.5109L1215.8 47.4642C1215.84 47.3517 1215.92 47.2955 1216.04 47.2955H1217.04C1217.17 47.2955 1217.25 47.3517 1217.27 47.4642L1219 53.5109C1219.03 53.6234 1218.99 53.6797 1218.89 53.6797H1218.19C1218.13 53.6797 1218.08 53.6698 1218.06 53.6499C1218.04 53.6234 1218.02 53.5771 1218.01 53.5109L1217.63 52.2202H1215.45L1215.07 53.5109C1215.04 53.6234 1214.98 53.6797 1214.89 53.6797ZM1216.52 48.2486L1215.65 51.4258H1217.44L1216.56 48.2486H1216.52ZM1221.05 52.8357H1222.45C1222.93 52.8357 1223.17 52.5908 1223.17 52.101V48.8741C1223.17 48.3843 1222.93 48.1394 1222.45 48.1394H1221.05C1220.98 48.1394 1220.95 48.1725 1220.95 48.2387V52.7265C1220.95 52.7993 1220.98 52.8357 1221.05 52.8357ZM1219.98 53.5109V47.4642C1219.98 47.3517 1220.04 47.2955 1220.15 47.2955H1222.59C1223.08 47.2955 1223.45 47.4311 1223.73 47.7025C1224 47.9673 1224.14 48.3446 1224.14 48.8344V52.1407C1224.14 52.6239 1224 53.0012 1223.73 53.2726C1223.45 53.544 1223.08 53.6797 1222.59 53.6797H1220.15C1220.04 53.6797 1219.98 53.6234 1219.98 53.5109ZM1228.2 53.6797H1227.49C1227.4 53.6797 1227.36 53.6234 1227.39 53.5109L1229.12 47.4642C1229.15 47.3517 1229.23 47.2955 1229.36 47.2955H1230.35C1230.48 47.2955 1230.56 47.3517 1230.59 47.4642L1232.31 53.5109C1232.34 53.6234 1232.3 53.6797 1232.2 53.6797H1231.5C1231.44 53.6797 1231.4 53.6698 1231.37 53.6499C1231.35 53.6234 1231.33 53.5771 1231.32 53.5109L1230.94 52.2202H1228.76L1228.38 53.5109C1228.36 53.6234 1228.3 53.6797 1228.2 53.6797ZM1229.83 48.2486L1228.96 51.4258H1230.76L1229.87 48.2486H1229.83ZM1234.37 52.8357H1235.77C1236.24 52.8357 1236.48 52.5908 1236.48 52.101V48.8741C1236.48 48.3843 1236.24 48.1394 1235.77 48.1394H1234.37C1234.29 48.1394 1234.26 48.1725 1234.26 48.2387V52.7265C1234.26 52.7993 1234.29 52.8357 1234.37 52.8357ZM1233.3 53.5109V47.4642C1233.3 47.3517 1233.35 47.2955 1233.46 47.2955H1235.91C1236.39 47.2955 1236.77 47.4311 1237.04 47.7025C1237.32 47.9673 1237.46 48.3446 1237.46 48.8344V52.1407C1237.46 52.6239 1237.32 53.0012 1237.04 53.2726C1236.77 53.544 1236.39 53.6797 1235.91 53.6797H1233.46C1233.35 53.6797 1233.3 53.6234 1233.3 53.5109ZM1239.88 52.8357H1241.28C1241.75 52.8357 1241.99 52.5908 1241.99 52.101V48.8741C1241.99 48.3843 1241.75 48.1394 1241.28 48.1394H1239.88C1239.8 48.1394 1239.77 48.1725 1239.77 48.2387V52.7265C1239.77 52.7993 1239.8 52.8357 1239.88 52.8357ZM1238.8 53.5109V47.4642C1238.8 47.3517 1238.86 47.2955 1238.97 47.2955H1241.41C1241.9 47.2955 1242.27 47.4311 1242.55 47.7025C1242.82 47.9673 1242.96 48.3446 1242.96 48.8344V52.1407C1242.96 52.6239 1242.82 53.0012 1242.55 53.2726C1242.27 53.544 1241.9 53.6797 1241.41 53.6797H1238.97C1238.86 53.6797 1238.8 53.6234 1238.8 53.5109ZM1245.1 53.6797H1244.48C1244.37 53.6797 1244.31 53.6234 1244.31 53.5109V47.4642C1244.31 47.3517 1244.37 47.2955 1244.48 47.2955H1246.8C1247.29 47.2955 1247.66 47.4345 1247.93 47.7125C1248.21 47.9839 1248.35 48.3611 1248.35 48.8443V49.6784C1248.35 50.4396 1248.04 50.9195 1247.41 51.1181V51.1578L1248.51 53.4811C1248.58 53.6135 1248.54 53.6797 1248.38 53.6797H1247.77C1247.61 53.6797 1247.5 53.6234 1247.46 53.5109L1246.4 51.2273H1245.39C1245.31 51.2273 1245.27 51.2604 1245.27 51.3266V53.5109C1245.27 53.6234 1245.22 53.6797 1245.1 53.6797ZM1245.38 50.433H1246.64C1247.13 50.433 1247.38 50.1914 1247.38 49.7082V48.8741C1247.38 48.3843 1247.13 48.1394 1246.64 48.1394H1245.38C1245.31 48.1394 1245.27 48.1725 1245.27 48.2387V50.3337C1245.27 50.3999 1245.31 50.433 1245.38 50.433ZM1253.04 53.6797H1249.86C1249.75 53.6797 1249.69 53.6234 1249.69 53.5109V47.4642C1249.69 47.3517 1249.75 47.2955 1249.86 47.2955H1253.04C1253.14 47.2955 1253.2 47.3517 1253.2 47.4642V47.9706C1253.2 48.0831 1253.14 48.1394 1253.04 48.1394H1250.77C1250.69 48.1394 1250.65 48.1725 1250.65 48.2387V49.9167C1250.65 49.9829 1250.69 50.016 1250.77 50.016H1252.69C1252.81 50.016 1252.87 50.0722 1252.87 50.1847V50.6911C1252.87 50.8036 1252.81 50.8599 1252.69 50.8599H1250.77C1250.69 50.8599 1250.65 50.893 1250.65 50.9592V52.7265C1250.65 52.7993 1250.69 52.8357 1250.77 52.8357H1253.04C1253.14 52.8357 1253.2 52.892 1253.2 53.0045V53.5109C1253.2 53.6234 1253.14 53.6797 1253.04 53.6797ZM1254.34 52.1308V51.8726C1254.34 51.7601 1254.4 51.7039 1254.51 51.7039H1255.15C1255.26 51.7039 1255.32 51.7601 1255.32 51.8726V52.0514C1255.32 52.3294 1255.38 52.5313 1255.49 52.657C1255.62 52.7762 1255.83 52.8357 1256.11 52.8357H1256.8C1257.08 52.8357 1257.29 52.7729 1257.41 52.6471C1257.54 52.5147 1257.6 52.3029 1257.6 52.0116V51.7833C1257.6 51.5715 1257.52 51.406 1257.35 51.2868C1257.19 51.1611 1256.99 51.0816 1256.76 51.0485C1256.52 51.0088 1256.26 50.9559 1255.97 50.8897C1255.69 50.8235 1255.43 50.7474 1255.19 50.6613C1254.95 50.5753 1254.75 50.4131 1254.58 50.1748C1254.42 49.9365 1254.34 49.632 1254.34 49.2614V48.8443C1254.34 48.3611 1254.48 47.9839 1254.75 47.7125C1255.03 47.4345 1255.41 47.2955 1255.89 47.2955H1256.94C1257.43 47.2955 1257.81 47.4345 1258.09 47.7125C1258.36 47.9839 1258.5 48.3611 1258.5 48.8443V49.0628C1258.5 49.1753 1258.45 49.2316 1258.33 49.2316H1257.7C1257.59 49.2316 1257.53 49.1753 1257.53 49.0628V48.9337C1257.53 48.6491 1257.47 48.4472 1257.34 48.328C1257.22 48.2023 1257.02 48.1394 1256.74 48.1394H1256.11C1255.83 48.1394 1255.62 48.2056 1255.49 48.338C1255.38 48.4637 1255.32 48.6822 1255.32 48.9933V49.3011C1255.32 49.5989 1255.53 49.8008 1255.96 49.9067C1256.15 49.9531 1256.36 49.9928 1256.59 50.0259C1256.82 50.059 1257.05 50.1086 1257.28 50.1748C1257.51 50.241 1257.73 50.3304 1257.92 50.4429C1258.11 50.5488 1258.26 50.7143 1258.38 50.9393C1258.5 51.1578 1258.56 51.4258 1258.56 51.7436V52.1308C1258.56 52.614 1258.42 52.9946 1258.15 53.2726C1257.87 53.544 1257.5 53.6797 1257.01 53.6797H1255.9C1255.42 53.6797 1255.04 53.544 1254.76 53.2726C1254.48 52.9946 1254.34 52.614 1254.34 52.1308ZM1259.78 52.1308V51.8726C1259.78 51.7601 1259.84 51.7039 1259.95 51.7039H1260.59C1260.7 51.7039 1260.76 51.7601 1260.76 51.8726V52.0514C1260.76 52.3294 1260.82 52.5313 1260.93 52.657C1261.06 52.7762 1261.27 52.8357 1261.55 52.8357H1262.23C1262.52 52.8357 1262.72 52.7729 1262.85 52.6471C1262.98 52.5147 1263.04 52.3029 1263.04 52.0116V51.7833C1263.04 51.5715 1262.96 51.406 1262.79 51.2868C1262.63 51.1611 1262.43 51.0816 1262.2 51.0485C1261.96 51.0088 1261.7 50.9559 1261.41 50.8897C1261.13 50.8235 1260.86 50.7474 1260.63 50.6613C1260.39 50.5753 1260.19 50.4131 1260.02 50.1748C1259.86 49.9365 1259.78 49.632 1259.78 49.2614V48.8443C1259.78 48.3611 1259.92 47.9839 1260.19 47.7125C1260.47 47.4345 1260.85 47.2955 1261.33 47.2955H1262.38C1262.87 47.2955 1263.25 47.4345 1263.53 47.7125C1263.8 47.9839 1263.94 48.3611 1263.94 48.8443V49.0628C1263.94 49.1753 1263.89 49.2316 1263.77 49.2316H1263.14C1263.03 49.2316 1262.97 49.1753 1262.97 49.0628V48.9337C1262.97 48.6491 1262.91 48.4472 1262.78 48.328C1262.66 48.2023 1262.46 48.1394 1262.18 48.1394H1261.55C1261.27 48.1394 1261.06 48.2056 1260.93 48.338C1260.82 48.4637 1260.76 48.6822 1260.76 48.9933V49.3011C1260.76 49.5989 1260.97 49.8008 1261.4 49.9067C1261.59 49.9531 1261.8 49.9928 1262.03 50.0259C1262.26 50.059 1262.49 50.1086 1262.72 50.1748C1262.95 50.241 1263.16 50.3304 1263.36 50.4429C1263.55 50.5488 1263.7 50.7143 1263.82 50.9393C1263.94 51.1578 1264 51.4258 1264 51.7436V52.1308C1264 52.614 1263.86 52.9946 1263.59 53.2726C1263.31 53.544 1262.94 53.6797 1262.45 53.6797H1261.34C1260.86 53.6797 1260.48 53.544 1260.2 53.2726C1259.92 52.9946 1259.78 52.614 1259.78 52.1308ZM1266.11 48.7748V49.9862C1266.11 50.0987 1266.05 50.155 1265.95 50.155H1265.27C1265.16 50.155 1265.1 50.0921 1265.1 49.9663V48.7848C1265.1 48.6722 1265.16 48.616 1265.27 48.616H1265.95C1266.05 48.616 1266.11 48.6689 1266.11 48.7748ZM1266.11 52.2996V53.5109C1266.11 53.6234 1266.05 53.6797 1265.95 53.6797H1265.27C1265.16 53.6797 1265.1 53.6201 1265.1 53.501V52.2996C1265.1 52.1937 1265.16 52.1407 1265.27 52.1407H1265.95C1266.05 52.1407 1266.11 52.1937 1266.11 52.2996ZM1271.23 52.8357H1271.94C1272.42 52.8357 1272.65 52.5908 1272.65 52.101V48.8741C1272.65 48.3843 1272.42 48.1394 1271.94 48.1394H1271.23C1270.76 48.1394 1270.52 48.3843 1270.52 48.8741V52.101C1270.52 52.5908 1270.76 52.8357 1271.23 52.8357ZM1272.08 53.6797H1271.08C1270.6 53.6797 1270.21 53.544 1269.94 53.2726C1269.67 53.0012 1269.54 52.6239 1269.54 52.1407V48.8344C1269.54 48.3446 1269.67 47.9673 1269.94 47.7025C1270.21 47.4311 1270.6 47.2955 1271.08 47.2955H1272.08C1272.56 47.2955 1272.94 47.4311 1273.21 47.7025C1273.48 47.9673 1273.62 48.3446 1273.62 48.8344V52.1407C1273.62 52.6239 1273.48 53.0012 1273.21 53.2726C1272.94 53.544 1272.56 53.6797 1272.08 53.6797ZM1276.48 52.8357H1277.18C1277.66 52.8357 1277.9 52.5908 1277.9 52.101V48.8741C1277.9 48.3843 1277.66 48.1394 1277.18 48.1394H1276.48C1276 48.1394 1275.76 48.3843 1275.76 48.8741V52.101C1275.76 52.5908 1276 52.8357 1276.48 52.8357ZM1277.32 53.6797H1276.33C1275.84 53.6797 1275.46 53.544 1275.19 53.2726C1274.92 53.0012 1274.78 52.6239 1274.78 52.1407V48.8344C1274.78 48.3446 1274.92 47.9673 1275.19 47.7025C1275.46 47.4311 1275.84 47.2955 1276.33 47.2955H1277.32C1277.81 47.2955 1278.18 47.4311 1278.46 47.7025C1278.73 47.9673 1278.86 48.3446 1278.86 48.8344V52.1407C1278.86 52.6239 1278.73 53.0012 1278.46 53.2726C1278.18 53.544 1277.81 53.6797 1277.32 53.6797ZM1281.73 52.8357H1282.43C1282.91 52.8357 1283.14 52.5908 1283.14 52.101V48.8741C1283.14 48.3843 1282.91 48.1394 1282.43 48.1394H1281.73C1281.25 48.1394 1281.01 48.3843 1281.01 48.8741V52.101C1281.01 52.5908 1281.25 52.8357 1281.73 52.8357ZM1282.57 53.6797H1281.58C1281.09 53.6797 1280.71 53.544 1280.43 53.2726C1280.16 53.0012 1280.03 52.6239 1280.03 52.1407V48.8344C1280.03 48.3446 1280.16 47.9673 1280.43 47.7025C1280.71 47.4311 1281.09 47.2955 1281.58 47.2955H1282.57C1283.05 47.2955 1283.43 47.4311 1283.7 47.7025C1283.97 47.9673 1284.11 48.3446 1284.11 48.8344V52.1407C1284.11 52.6239 1283.97 53.0012 1283.7 53.2726C1283.43 53.544 1283.05 53.6797 1282.57 53.6797ZM1286.97 52.8357H1287.68C1288.15 52.8357 1288.39 52.5908 1288.39 52.101V48.8741C1288.39 48.3843 1288.15 48.1394 1287.68 48.1394H1286.97C1286.49 48.1394 1286.26 48.3843 1286.26 48.8741V52.101C1286.26 52.5908 1286.49 52.8357 1286.97 52.8357ZM1287.81 53.6797H1286.82C1286.33 53.6797 1285.95 53.544 1285.68 53.2726C1285.41 53.0012 1285.27 52.6239 1285.27 52.1407V48.8344C1285.27 48.3446 1285.41 47.9673 1285.68 47.7025C1285.95 47.4311 1286.33 47.2955 1286.82 47.2955H1287.81C1288.3 47.2955 1288.68 47.4311 1288.95 47.7025C1289.22 47.9673 1289.35 48.3446 1289.35 48.8344V52.1407C1289.35 52.6239 1289.22 53.0012 1288.95 53.2726C1288.68 53.544 1288.3 53.6797 1287.81 53.6797ZM1292.22 52.8357H1292.92C1293.4 52.8357 1293.64 52.5908 1293.64 52.101V48.8741C1293.64 48.3843 1293.4 48.1394 1292.92 48.1394H1292.22C1291.74 48.1394 1291.5 48.3843 1291.5 48.8741V52.101C1291.5 52.5908 1291.74 52.8357 1292.22 52.8357ZM1293.06 53.6797H1292.07C1291.58 53.6797 1291.2 53.544 1290.93 53.2726C1290.65 53.0012 1290.52 52.6239 1290.52 52.1407V48.8344C1290.52 48.3446 1290.65 47.9673 1290.93 47.7025C1291.2 47.4311 1291.58 47.2955 1292.07 47.2955H1293.06C1293.54 47.2955 1293.92 47.4311 1294.19 47.7025C1294.46 47.9673 1294.6 48.3446 1294.6 48.8344V52.1407C1294.6 52.6239 1294.46 53.0012 1294.19 53.2726C1293.92 53.544 1293.54 53.6797 1293.06 53.6797ZM1297.46 52.8357H1298.17C1298.64 52.8357 1298.88 52.5908 1298.88 52.101V48.8741C1298.88 48.3843 1298.64 48.1394 1298.17 48.1394H1297.46C1296.99 48.1394 1296.75 48.3843 1296.75 48.8741V52.101C1296.75 52.5908 1296.99 52.8357 1297.46 52.8357ZM1298.31 53.6797H1297.31C1296.82 53.6797 1296.44 53.544 1296.17 53.2726C1295.9 53.0012 1295.76 52.6239 1295.76 52.1407V48.8344C1295.76 48.3446 1295.9 47.9673 1296.17 47.7025C1296.44 47.4311 1296.82 47.2955 1297.31 47.2955H1298.31C1298.79 47.2955 1299.17 47.4311 1299.44 47.7025C1299.71 47.9673 1299.84 48.3446 1299.84 48.8344V52.1407C1299.84 52.6239 1299.71 53.0012 1299.44 53.2726C1299.17 53.544 1298.79 53.6797 1298.31 53.6797ZM1300.95 53.5109V52.5974C1300.95 52.1871 1301.13 51.8429 1301.48 51.5648L1303.35 50.0358C1303.67 49.7843 1303.83 49.493 1303.83 49.1621V48.8344C1303.83 48.3578 1303.58 48.1195 1303.08 48.1195H1302.6C1302.35 48.1195 1302.16 48.1758 1302.05 48.2883C1301.94 48.4009 1301.88 48.5829 1301.88 48.8344V49.2018C1301.88 49.3209 1301.83 49.3805 1301.71 49.3805H1301.08C1300.97 49.3805 1300.91 49.3209 1300.91 49.2018V48.8146C1300.91 48.3314 1301.05 47.9574 1301.32 47.6926C1301.59 47.4278 1301.97 47.2955 1302.46 47.2955H1303.23C1303.72 47.2955 1304.09 47.4278 1304.37 47.6926C1304.64 47.9574 1304.77 48.3314 1304.77 48.8146V49.2216C1304.77 49.7379 1304.57 50.1616 1304.17 50.4925L1302.26 52.0514C1302.11 52.1771 1302.03 52.3261 1302.03 52.4982V52.8159H1304.61C1304.73 52.8159 1304.79 52.8721 1304.79 52.9847V53.5109C1304.79 53.6234 1304.73 53.6797 1304.61 53.6797H1301.13C1301.01 53.6797 1300.95 53.6234 1300.95 53.5109ZM1307.55 52.8357H1308.25C1308.73 52.8357 1308.97 52.5908 1308.97 52.101V48.8741C1308.97 48.3843 1308.73 48.1394 1308.25 48.1394H1307.55C1307.07 48.1394 1306.83 48.3843 1306.83 48.8741V52.101C1306.83 52.5908 1307.07 52.8357 1307.55 52.8357ZM1308.39 53.6797H1307.4C1306.91 53.6797 1306.53 53.544 1306.26 53.2726C1305.98 53.0012 1305.85 52.6239 1305.85 52.1407V48.8344C1305.85 48.3446 1305.98 47.9673 1306.26 47.7025C1306.53 47.4311 1306.91 47.2955 1307.4 47.2955H1308.39C1308.87 47.2955 1309.25 47.4311 1309.52 47.7025C1309.79 47.9673 1309.93 48.3446 1309.93 48.8344V52.1407C1309.93 52.6239 1309.79 53.0012 1309.52 53.2726C1309.25 53.544 1308.87 53.6797 1308.39 53.6797ZM1312.79 52.8357H1313.5C1313.97 52.8357 1314.21 52.5908 1314.21 52.101V48.8741C1314.21 48.3843 1313.97 48.1394 1313.5 48.1394H1312.79C1312.31 48.1394 1312.08 48.3843 1312.08 48.8741V52.101C1312.08 52.5908 1312.31 52.8357 1312.79 52.8357ZM1313.64 53.6797H1312.64C1312.15 53.6797 1311.77 53.544 1311.5 53.2726C1311.23 53.0012 1311.09 52.6239 1311.09 52.1407V48.8344C1311.09 48.3446 1311.23 47.9673 1311.5 47.7025C1311.77 47.4311 1312.15 47.2955 1312.64 47.2955H1313.64C1314.12 47.2955 1314.5 47.4311 1314.77 47.7025C1315.04 47.9673 1315.17 48.3446 1315.17 48.8344V52.1407C1315.17 52.6239 1315.04 53.0012 1314.77 53.2726C1314.5 53.544 1314.12 53.6797 1313.64 53.6797ZM1316.04 48.8543V48.2685C1316.04 48.1626 1316.09 48.0831 1316.18 48.0302L1317.21 47.4047C1317.34 47.3319 1317.44 47.2955 1317.53 47.2955H1318.13C1318.24 47.2955 1318.3 47.3517 1318.3 47.4642V53.5109C1318.3 53.6234 1318.24 53.6797 1318.14 53.6797H1317.49C1317.38 53.6797 1317.32 53.6234 1317.32 53.5109V48.328L1316.24 48.9536C1316.11 49.0131 1316.04 48.98 1316.04 48.8543ZM1321.29 52.8357H1321.99C1322.47 52.8357 1322.71 52.5908 1322.71 52.101V48.8741C1322.71 48.3843 1322.47 48.1394 1321.99 48.1394H1321.29C1320.81 48.1394 1320.57 48.3843 1320.57 48.8741V52.101C1320.57 52.5908 1320.81 52.8357 1321.29 52.8357ZM1322.13 53.6797H1321.14C1320.65 53.6797 1320.27 53.544 1319.99 53.2726C1319.72 53.0012 1319.59 52.6239 1319.59 52.1407V48.8344C1319.59 48.3446 1319.72 47.9673 1319.99 47.7025C1320.27 47.4311 1320.65 47.2955 1321.14 47.2955H1322.13C1322.61 47.2955 1322.99 47.4311 1323.26 47.7025C1323.53 47.9673 1323.67 48.3446 1323.67 48.8344V52.1407C1323.67 52.6239 1323.53 53.0012 1323.26 53.2726C1322.99 53.544 1322.61 53.6797 1322.13 53.6797ZM1326.53 52.8357H1327.24C1327.71 52.8357 1327.95 52.5908 1327.95 52.101V48.8741C1327.95 48.3843 1327.71 48.1394 1327.24 48.1394H1326.53C1326.05 48.1394 1325.82 48.3843 1325.82 48.8741V52.101C1325.82 52.5908 1326.05 52.8357 1326.53 52.8357ZM1327.37 53.6797H1326.38C1325.89 53.6797 1325.51 53.544 1325.24 53.2726C1324.97 53.0012 1324.83 52.6239 1324.83 52.1407V48.8344C1324.83 48.3446 1324.97 47.9673 1325.24 47.7025C1325.51 47.4311 1325.89 47.2955 1326.38 47.2955H1327.37C1327.86 47.2955 1328.24 47.4311 1328.51 47.7025C1328.78 47.9673 1328.91 48.3446 1328.91 48.8344V52.1407C1328.91 52.6239 1328.78 53.0012 1328.51 53.2726C1328.24 53.544 1327.86 53.6797 1327.37 53.6797ZM1331.78 52.8357H1332.48C1332.96 52.8357 1333.2 52.5908 1333.2 52.101V48.8741C1333.2 48.3843 1332.96 48.1394 1332.48 48.1394H1331.78C1331.3 48.1394 1331.06 48.3843 1331.06 48.8741V52.101C1331.06 52.5908 1331.3 52.8357 1331.78 52.8357ZM1332.62 53.6797H1331.63C1331.14 53.6797 1330.76 53.544 1330.49 53.2726C1330.21 53.0012 1330.08 52.6239 1330.08 52.1407V48.8344C1330.08 48.3446 1330.21 47.9673 1330.49 47.7025C1330.76 47.4311 1331.14 47.2955 1331.63 47.2955H1332.62C1333.1 47.2955 1333.48 47.4311 1333.75 47.7025C1334.02 47.9673 1334.16 48.3446 1334.16 48.8344V52.1407C1334.16 52.6239 1334.02 53.0012 1333.75 53.2726C1333.48 53.544 1333.1 53.6797 1332.62 53.6797ZM1337.02 52.8357H1337.73C1338.2 52.8357 1338.44 52.5908 1338.44 52.101V48.8741C1338.44 48.3843 1338.2 48.1394 1337.73 48.1394H1337.02C1336.55 48.1394 1336.31 48.3843 1336.31 48.8741V52.101C1336.31 52.5908 1336.55 52.8357 1337.02 52.8357ZM1337.87 53.6797H1336.87C1336.38 53.6797 1336 53.544 1335.73 53.2726C1335.46 53.0012 1335.32 52.6239 1335.32 52.1407V48.8344C1335.32 48.3446 1335.46 47.9673 1335.73 47.7025C1336 47.4311 1336.38 47.2955 1336.87 47.2955H1337.87C1338.35 47.2955 1338.73 47.4311 1339 47.7025C1339.27 47.9673 1339.4 48.3446 1339.4 48.8344V52.1407C1339.4 52.6239 1339.27 53.0012 1339 53.2726C1338.73 53.544 1338.35 53.6797 1337.87 53.6797ZM1342.27 52.8357H1342.97C1343.45 52.8357 1343.69 52.5908 1343.69 52.101V48.8741C1343.69 48.3843 1343.45 48.1394 1342.97 48.1394H1342.27C1341.79 48.1394 1341.55 48.3843 1341.55 48.8741V52.101C1341.55 52.5908 1341.79 52.8357 1342.27 52.8357ZM1343.11 53.6797H1342.12C1341.63 53.6797 1341.25 53.544 1340.98 53.2726C1340.71 53.0012 1340.57 52.6239 1340.57 52.1407V48.8344C1340.57 48.3446 1340.71 47.9673 1340.98 47.7025C1341.25 47.4311 1341.63 47.2955 1342.12 47.2955H1343.11C1343.59 47.2955 1343.97 47.4311 1344.24 47.7025C1344.51 47.9673 1344.65 48.3446 1344.65 48.8344V52.1407C1344.65 52.6239 1344.51 53.0012 1344.24 53.2726C1343.97 53.544 1343.59 53.6797 1343.11 53.6797Z" fill="#4A4A4A"/>
</svg>
