<svg width="695" height="171" viewBox="0 0 695 171" fill="none" xmlns="http://www.w3.org/2000/svg">
<path d="M205.97 60.75C206.36 60.25 206.76 59.76 207.15 59.26C207.44 59.13 208.48 58.2 207.7 58.17C202.17 57.88 196.02 58.35 190.01 58.17C183.4 63.5 176.54 69.02 170.32 74.4C169.47 75.14 168.65 76.27 167.4 76.41C167.28 68.81 168.32 63.57 168.49 56.9C167.93 55.94 167.89 54.46 166.67 54.16H166.49C163.435 55.5797 160.558 57.3554 157.92 59.45C157.25 60.24 155.94 60.39 155.73 61.64C155.167 66.2313 155.309 70.8815 156.15 75.43C156.24 76.64 156.35 77.84 156.46 79.01L157.68 82.03C160.54 83.91 162.26 86.65 165.35 88.3C166.701 87.5557 168.003 86.7274 169.25 85.82C165.24 90.39 161.09 94.84 157.2 99.58C154.5 102.87 152.02 106.43 149.36 109.79C146.65 113.21 143.87 116.51 141.34 120C133.73 130.49 125.7 140.69 117.82 150.63C115.12 154.03 112.03 157.11 109.8 160.84C108.928 161.412 108.182 162.158 107.61 163.03C108.84 162.43 110 161.77 111.26 161.21C112.53 159.39 114.01 157.54 115.55 155.71C113.55 158.4 111.81 161.33 109.39 163.6C109.32 163.8 109.17 164.04 109.39 163.79C110.5 163.32 111.42 162.66 112.49 162.15C116.81 156.51 121.16 150.89 125.99 145.74C127.71 145.58 128.15 143.99 129.45 143.37C130.313 142.99 131.248 142.802 132.19 142.82C135.337 140.582 138.854 138.917 142.58 137.9C143.37 137.78 143.6 138.21 144.04 138.45C165.22 112.41 187.01 86.97 208.04 60.77C207.33 60.76 206.64 60.75 205.97 60.75ZM115.85 155.29C117.47 153.37 119.13 151.48 120.68 149.65C119.399 151.788 117.766 153.695 115.85 155.29ZM522.38 46.34C522.31 44.81 523.09 44.13 523.29 42.88C523.06 42.87 523.04 42.65 522.75 42.7C522.26 43.98 521.2 44.68 520.74 45.98C521.57 45.81 521.77 46.28 522.38 46.34ZM135.85 94.12C138.3 93.95 141.13 94.41 142.96 93.75C144.66 94.49 146.89 93.26 148.61 93.57C149.8 93.78 149.83 94.67 150.98 94.85C153.97 92.49 156.12 89.29 158.82 86.64C158.51 85.61 158.33 84.46 158.09 83.36L157 81.72H155.86C155.806 80.935 155.566 80.174 155.16 79.5C154.557 79.59 153.943 79.59 153.34 79.5C152.52 79.47 151.74 79.71 151.33 79.5C149.826 78.479 148.423 77.3171 147.14 76.03C146.22 75.2 143.83 73.07 142.58 72.93C141.37 72.8 139.95 73.63 138.57 74.03C137.196 74.4744 135.797 74.8384 134.38 75.12C131.77 75.5 128.7 75.38 125.81 75.49C107.7 76.12 87.61 77.43 69.9 77.65C92.02 65.87 114.58 52.76 136.77 40.7C138.44 39.79 140.56 38.32 141.69 38.15C143.32 37.89 145.38 38.49 146.98 38.7C148.643 38.8649 150.288 39.1693 151.9 39.61C156.31 37.15 161.26 35.23 165.58 32.68C164.656 32.2675 163.843 31.6401 163.21 30.85C163.233 30.7045 163.236 30.5564 163.22 30.41C164 30.03 164.78 29.68 165.56 29.36C164.24 27.62 161.79 26.57 159.49 25.26C159.28 25.02 158.87 24.83 159.12 24.49C156.71 23.01 154.4 21.43 151.83 20.11C149.29 20.98 147.96 21.82 145.41 22.66C145.01 22.87 144.33 22.18 143.77 22.11C139.99 24.3842 136.026 26.3377 131.92 27.95C128.882 29.2255 125.956 30.7507 123.17 32.51C122.26 33.09 121.22 33.61 120.25 34.15L117.72 36.03C86.57 51.61 61.21 62.65 31.18 76.4C31.6959 76.7108 32.1613 77.0986 32.56 77.55L19.51 82.24C15.75 84.3 9.55 86.61 4.38 84.98C2.80689 85.6189 1.33224 86.4774 0 87.53C1.51 88.33 3.13 89.13 4.8 89.92C4.53986 90.0326 4.28614 90.1594 4.04 90.3C9.04 92.58 14.83 95.41 20.09 97.59C21.9198 98.4511 23.8078 99.1829 25.74 99.78C27.1295 99.98 28.5405 99.98 29.93 99.78C35.77 99.52 41.31 99.19 46.89 98.69C50.1 98.4 53.41 97.77 56.55 97.78C61.71 97.79 66.85 97.97 72.05 97.96C77.29 97.96 82.6 97.29 87.91 97.05C98.34 96.59 109.05 96.07 119.82 95.41C125.23 95.07 130.62 94.48 135.85 94.12ZM508.34 87.91C508.98 86.76 509.7 85.57 510.35 84.45C514.32 77.48 518.41 70.67 522.39 63.84C521.39 61.19 519.38 59.56 519.47 55.82C519.61 55.11 520.6 55.25 520.75 54.54C519.78 52.24 521.02 49.98 521.3 47.43C521.189 47.4822 521.063 47.4937 520.944 47.4627C520.825 47.4316 520.721 47.3599 520.65 47.26C520.701 46.9443 520.69 46.6219 520.62 46.31C520.522 46.4998 520.378 46.6616 520.2 46.78C520.18 46.78 520.16 46.8 520.14 46.81C519.559 47.116 518.906 47.2578 518.25 47.22C511.85 57.78 504.76 68.66 498.19 79.13C497.351 80.7318 496.374 82.2576 495.27 83.69C493.73 85.3 491.23 86.36 489.25 87.7C483.07 91.91 477.31 96.08 471.02 99.92C470.903 99.9322 470.791 99.9698 470.69 100.03C472.12 96.35 473.96 92.71 475.17 89.01C475.96 86.59 476.79 84.23 476.35 82.09C476.554 80.7401 476.608 79.3717 476.51 78.01C482.64 75.85 488.72 73.64 494.68 71.32C495.56 66.24 496.32 61.05 497.78 56.55C497.88 56.37 498.72 55.74 497.96 55.82C497.61 55.85 497.26 55.87 496.91 55.9C496.97 55.56 497.03 55.22 497.1 54.88C497.09 54.44 497.75 53.14 497.1 53.24H496.19C492.86 53.56 489.34 53.69 485.98 53.97C484.37 55.43 481.95 55.04 478.87 55.25C477.3 55.35 475.6 55.5 473.95 55.62C469.46 55.94 464.77 56.59 462.1 55.62C445.86 57.18 428.67 57.8 411.59 58.54C407.08 68.8 401.85 78.34 397 88.26C391.84 89.97 387.04 92.04 381.87 93.73C382.04 94.69 383.17 95.2 383.87 95.73C383.919 95.7642 383.965 95.8009 384.01 95.84C383.34 96.11 382.65 96.38 381.99 96.67C383.54 97.68 385.01 98.98 386.55 100.14C387.635 101.049 388.803 101.852 390.04 102.54C387.7 107.24 385.5 112.04 383.5 116.88C383.05 117.96 382.31 118.91 381.86 119.98C381.61 120.57 381.56 121.25 381.31 121.8C381.07 122.35 380.68 122.87 380.4 123.44C372.85 138.92 365.85 154.43 358.33 169.76C359.32 169.63 359.52 168.72 360.34 168.12C360.621 167.915 360.919 167.735 361.23 167.58C360.72 168.68 360.22 169.78 359.74 170.87C360.58 168.75 362.95 168.84 364.3 167.22C365.044 166.013 365.654 164.729 366.12 163.39C367.92 159.44 369.68 155.44 371.96 152.27C373.77 152.06 374.03 150.23 375.79 150.45C378.219 147.955 380.982 145.808 384 144.07C385.083 143.553 386.12 142.944 387.1 142.25C388.1 141.29 388.94 138.91 389.84 137.15C394.45 128.07 398.62 119.36 402.97 110.71C404.78 107.11 406.18 103.36 408.44 100.32C427.1 94.12 446.15 88.3 464.77 82.06C461.01 90.43 457.09 98.66 454.26 107.96C454.82 108.41 455.39 108.85 455.95 109.3C455.8 109.9 455.62 110.47 455.49 111.09C458.01 113.43 460.97 115.34 463.7 117.47C467.25 114.26 471.38 111.73 475.37 109.08C478.43 107.04 481.32 104.85 484.3 102.88C484.65 102.65 485 102.38 485.36 102.12C484.21 104.41 483 106.64 481.98 109.06C482.414 109.314 482.882 109.506 483.37 109.63C483.014 110.372 482.832 111.187 482.84 112.01C483.24 112.06 484.39 112.53 485.21 112.74C487.7 114.51 490.38 115.77 493.04 117.38C493.65 115.32 494.96 113.84 495.61 112.01C496.78 110.54 501.48 99.7 504.99 94.4L508.34 87.91ZM520.23 48.77C520.208 49.0023 520.257 49.2357 520.37 49.44C520.15 49.74 519.91 50.04 519.67 50.33C519.85 49.8 520.05 49.29 520.23 48.77ZM417.35 83.34C417.989 82.3467 418.421 81.2345 418.62 80.07C420.52 77.35 421.58 73.79 423.73 71.32C437.41 70.24 452.19 69.2 466.73 68.26C450.64 73.66 434.18 78.6867 417.35 83.34ZM368.29 112.35C370.95 113.08 373.57 113.94 375.95 114.36C378.063 112.79 380.019 111.018 381.79 109.07C382.7 108.16 383.6 107.24 384.52 106.34C385.44 105.44 386.81 104.66 387.07 103.24C386.6 103.05 386.11 102.87 385.63 102.69C386.185 102.058 386.684 101.379 387.12 100.66C380.47 97.55 373.25 95.68 366.33 93C360.42 90.71 354.58 88.29 348.91 85.84C356.43 83.95 363.92 81.9 371.21 79.72C378.64 77.49 386.5 75.33 392.91 72.24C393.843 71.7264 394.82 71.298 395.83 70.96C395.51 70.41 395.15 69.9 394.8 69.38C395.215 69.0412 395.579 68.6437 395.88 68.2C393.91 65.37 391.71 62.77 390.04 59.63C367.33 57.54 343.93 56.14 319.47 55.8C318.57 56.42 318.36 57.74 317.28 58.17C300.75 57.99 283.75 57.49 267.68 57.44C266.54 58.95 265.35 60.41 264.21 62C263.09 63.58 262.23 65.46 260.75 66.74C259.69 64.52 258.37 62.55 257.29 60.36C249.25 60.14 241.05 60.08 233.02 59.87C240.67 50.51 248.85 40.45 256.7 31.03C257.93 29.56 260.11 27.56 260.35 26.29C260.474 24.5252 260.414 22.7522 260.17 21C260.04 20.17 259.52 19.56 259.44 18.81C259.26 17.13 259.99 15.83 259.99 14.07C261.29 12.99 261.48 10.94 262.54 9.69C263.09 9.04 263.81 9.02 264.18 8.23C265.37 6.26 267.29 4.28 268.37 2.4C268.57 2.05 268.98 1.87 268.55 1.49C266.24 3.63 266.31 4.42 265.48 5.24C264.87 5.84 265.42 4.72 264.72 5.14C264.287 5.93553 263.703 6.63873 263 7.21C263.137 7.0819 263.243 6.92467 263.31 6.75C264.47 4.75 266.43 2.79 267.5 0.91C267.7 0.56 268.1 0.39 267.68 0C265.09 2.67 265.97 1.92 265.13 2.74C264.89 3.53 263.99 2.84 263.85 3.47C262.597 4.7173 261.44 6.05781 260.39 7.48C259.89 8.31 259.76 9.2 259.3 10.03C258.51 11.46 256.85 12.54 255.65 14.04C253.93 16.2 252.81 19.04 250.91 20.79C250.86 21.35 250.51 21.61 250.36 22.07C249.81 21.86 249.31 23.11 249.27 22.25C249.31 21.99 249.57 21.94 249.64 21.7C249.92 21.63 249.67 21.48 249.46 21.7C247.92 21.99 247.36 23.25 246.36 24.07C245.601 24.3839 244.749 24.3839 243.99 24.07C232.83 37.45 220.9 50.12 209.89 63.64C198.84 77.21 187.89 90.85 177.61 105.22C178.06 105.52 178.5 105.82 178.94 106.12C178.58 106.67 178.24 107.23 177.93 107.79C183.65 111.74 189.15 115.9 195.25 119.46C214.92 104.62 235.5 89.87 255.11 75.16C249.65 82.82 244.24 90.53 238.88 98.29C239.44 98.65 239.96 99.06 240.49 99.46C240.209 99.9407 240.077 100.494 240.11 101.05C240.32 102.07 242.74 103.38 243.94 104.33C245.18 105.483 246.522 106.521 247.95 107.43C248.88 107.02 249.88 106.69 250.87 106.34C251.37 106.07 251.8 106.44 252.51 106.16C265.73 102.18 280.23 99.48 295.18 97.23C296.55 94.28 298.51 91.93 299.37 88.48C299.04 88.51 298.7 88.54 298.37 88.58C298.922 87.4825 299.393 86.3461 299.78 85.18C287.04 87.18 274.22 89.09 262.06 91.67C263.4 89.19 264.92 86.63 266.36 84.48C277.09 83.18 288.18 82.23 298.82 80.83C300.168 79.0349 301.388 77.1469 302.47 75.18C302.82 74.61 303.48 74.04 303.38 73.36C302.93 73.39 302.48 73.41 302.03 73.43C302.47 72.77 302.93 72.12 303.43 71.51C303.47 71.21 304.85 70.85 303.98 70.78C293.14 71.14 283.98 71.45 273.38 71.99C273.83 71.1 274.29 70.22 274.75 69.35C280.27 69.51 285.5 68.86 290.07 68.62C290.72 68.01 291.15 66.94 292.26 66.61C293.82 66.15 296.9 66.55 299.74 66.43C304.64 66.22 309.03 66.65 313.05 66.61C313.767 65.9789 314.381 65.2401 314.87 64.42C314.88 64.42 314.89 64.41 314.9 64.41C309.49 76.33 304.29 88.18 298.87 99.95C296.87 104.3 294.4 108.55 293.03 113.26C293.31 113.62 293.59 113.97 293.88 114.33C293.7 114.83 293.5 115.33 293.34 115.84C294.41 117.56 295.07 117.83 296.78 120.05C298.544 122.056 300.442 123.94 302.46 125.69C306.36 117.25 309.74 108.46 313.95 100.16L317.41 92.5C319.208 93.0761 320.973 93.747 322.7 94.51C326.72 96.29 330.67 98.01 334.55 99.61C336.46 100.4 338.2 101.36 340.02 102.17L364.24 110.95C365.43 111.36 367.02 112 368.29 112.35ZM259.11 12.58C260.035 11.2603 260.828 9.85369 261.48 8.38C261.891 7.97879 262.348 7.62645 262.84 7.33C262.291 7.79617 261.816 8.34229 261.43 8.95C260.87 9.92 260.78 11.12 260.15 12.05C259.785 12.5664 259.366 13.0425 258.9 13.47C258.97 13.18 259.02 12.88 259.11 12.58ZM220.09 83.88C214.81 87.44 209.46 91.04 204.29 94.58C210.37 87.16 216.68 79.4 222.96 72.24C223.005 72.1133 223.078 71.9982 223.173 71.9031C223.268 71.808 223.383 71.7352 223.51 71.69C227.84 71.93 232.22 72.12 236.43 72.49C231.29 76.29 225.62 80.14 220.09 83.88ZM316.47 60.91C316.39 60.91 316.31 60.9 316.24 60.9C316.34 60.8288 316.447 60.7684 316.56 60.72C316.524 60.7803 316.494 60.844 316.47 60.91ZM328.77 77.67C327.07 76.9 325.28 76.23 323.44 75.61C324.448 72.9022 325.603 70.2516 326.9 67.67C338.93 67.51 352.22 67.87 364.1 68.43C352.54 71.73 340.58 74.63 328.77 77.67ZM570.54 62.37C571.03 61.45 571.53 60.55 572.03 59.63C567.55 59.38 562.5 60.43 558.9 59.81C553.53 67.63 549.11 77.05 544.31 85.15C543.639 86.4382 542.884 87.6809 542.05 88.87C539.81 79.5 537.57 69.4 534.47 60.89H530.46C530.99 59.77 530.25 59.43 529.73 58.88C530.01 57.88 530.83 57.42 530.82 56.14L530.09 56.69C527.62 60.79 525.42 64.97 523.34 69.27C521.29 73.53 518.68 77.53 516.41 81.67C511.84 90 507.17 98.29 503.1 107.02C503.96 106.71 504.08 106.55 504.74 106.69C504.3 107.6 503.85 108.5 503.42 109.41C504.22 108.67 504.39 109.13 505.61 109.23C509.2 108.33 514.05 108.07 518.19 107.22C522.07 100.22 526.05 93.32 530.04 86.43C531.97 94.1 533.73 101.95 535.69 109.59C539.221 109.663 542.753 109.54 546.27 109.22C554.84 93.59 563.53 78.1 571.98 62.36C571.5 62.36 571.02 62.36 570.54 62.37ZM693.52 145.6C693.93 145.81 694.34 146.03 694.75 146.24C694.46 145.74 693.79 145.62 693.65 144.96C693.425 144.125 693.425 143.245 693.65 142.41C693.054 141.914 692.506 141.366 692.01 140.77C691.72 140.92 692.01 139.31 692.01 139.31C691.31 138.84 690.59 138.38 689.85 137.93C689.946 137.678 689.98 137.408 689.95 137.14C671.65 126.48 653.02 116.29 634.88 105.59C631.45 103.56 627.98 101.6 624.54 99.6C624.3 98.54 624.06 97.49 623.8 96.45C621.93 95.45 620.12 94.41 618.34 93.33C618.383 93.2859 618.423 93.2391 618.46 93.19C619.1 92.86 619.71 92.69 620.47 92.28C619.75 91.81 619.01 91.35 618.27 90.89C618.974 90.4655 619.726 90.1265 620.51 89.88C619.05 88.94 617.41 87.74 615.77 86.78C612.35 84.78 608.97 82.67 605.74 80.76C604.76 80.18 603.73 79.71 602.77 79.14C607.81 76.39 613.02 73.76 618.27 70.93C621.14 69.39 624.14 67.94 627.03 66.37C631.16 64.13 635.74 62.56 638.52 59.44C645.13 56.26 651.61 52.96 658.21 49.77C661.07 46 662.77 41.08 667.51 39.19C667.96 38.16 669.18 36.79 669.33 36.09C669.33 36.1 669.16 36.08 669.15 36.09C667.69 36.95 666.17 37.75 664.65 38.54C665.445 37.7986 666.366 37.2059 667.37 36.79C667.89 36.16 668.09 35.21 668.83 34.78C668.82 34.23 669.22 34.07 669.38 33.69C669.57 33.58 670.54 32.93 669.74 32.96C656.43 40.17 642.42 46.29 628.71 53.02C615.66 59.43 602.53 65.74 589.56 72.16C592.3 66.98 595.13 61.9 597.85 56.7L596.47 56.76C596.94 55.88 597.42 55 597.89 54.12C592.91 53.94 588.87 54.7 583.85 54.49C582.88 54.37 582.92 53.23 582.21 52.85C575.35 65.5 568.5 78.16 561.79 90.96C562.03 91.46 562.3 92.04 562.57 92.63L562.48 92.81C560.3 96.93 557.78 100.95 556.1 105.39C558.76 108.57 563.31 111.43 567.04 114.14C567.997 111.737 569.155 109.419 570.5 107.21C574.22 100.53 577.97 93.89 581.62 87.15C588.14 90.35 594.27 93.95 600.4 97.54C600.97 98.07 601.27 98.86 602.04 99.18C616.97 107.48 632.26 115.43 647.45 123.62C662.63 131.8 677.89 139.98 693.04 147.69C692.71 147.74 693.94 148.71 694.13 148.24C693.849 147.867 693.65 147.44 693.545 146.985C693.44 146.53 693.431 146.058 693.52 145.6Z" fill="black"/>
<path d="M668.39 44.51C667.585 44.51 666.813 44.8298 666.244 45.3989C665.675 45.9681 665.355 46.7401 665.355 47.545C665.355 48.3499 665.675 49.1219 666.244 49.6911C666.813 50.2603 667.585 50.58 668.39 50.58C668.789 50.58 669.183 50.5015 669.551 50.349C669.92 50.1965 670.254 49.9729 670.536 49.6911C670.818 49.4093 671.041 49.0747 671.194 48.7065C671.346 48.3382 671.425 47.9436 671.425 47.545C671.425 47.1464 671.346 46.7518 671.194 46.3836C671.041 46.0153 670.818 45.6808 670.536 45.3989C670.254 45.1171 669.92 44.8936 669.551 44.741C669.183 44.5885 668.789 44.51 668.39 44.51ZM668.39 49.97C667.91 49.971 667.44 49.8295 667.041 49.5634C666.641 49.2973 666.33 48.9186 666.146 48.4753C665.961 48.032 665.913 47.544 666.006 47.0731C666.1 46.6023 666.331 46.1697 666.67 45.8303C667.01 45.4908 667.442 45.2598 667.913 45.1664C668.384 45.073 668.872 45.1214 669.315 45.3056C669.759 45.4897 670.137 45.8013 670.403 46.2009C670.669 46.6004 670.811 47.07 670.81 47.55C670.811 47.868 670.748 48.1829 670.627 48.4768C670.506 48.7707 670.327 49.0377 670.102 49.2625C669.878 49.4873 669.611 49.6656 669.317 49.787C669.023 49.9084 668.708 49.9706 668.39 49.97ZM669.76 46.93C669.762 46.7754 669.731 46.6221 669.67 46.4802C669.608 46.3384 669.517 46.2113 669.403 46.1072C669.289 46.0032 669.153 45.9247 669.006 45.8769C668.859 45.8291 668.704 45.8131 668.55 45.83H667.27V49.15H667.89V48.05H668.45L669.01 49.15H669.68L669.07 47.95C669.271 47.8647 669.443 47.723 669.566 47.542C669.688 47.361 669.756 47.1485 669.76 46.93ZM668.6 47.46H667.89V46.4H668.57C668.71 46.3975 668.845 46.4502 668.946 46.5466C669.047 46.6431 669.106 46.7755 669.11 46.9152C669.114 47.0548 669.062 47.1903 668.967 47.2924C668.871 47.3944 668.74 47.4546 668.6 47.46Z" fill="black"/>
</svg>
