<svg width="78" height="46" viewBox="0 0 78 46" fill="none" xmlns="http://www.w3.org/2000/svg">
<path d="M45.4014 13.582L45.498 32.1807L32.417 45.4014L13.8184 45.498L0.597656 32.417L0.500977 13.8184L13.582 0.597656L32.1807 0.500977L45.4014 13.582Z" stroke="#58DDE6"/>
<path d="M16.874 8.42688L28.9729 8.36353L37.5729 16.874L37.6363 28.9729L29.1258 37.5729L17.0269 37.6363L8.42688 29.1258L8.36353 17.0269L16.874 8.42688Z" fill="#58DDE6"/>
<path d="M75.6326 9.04903V8.86835C75.6326 8.79718 75.6654 8.73969 75.7311 8.69589L76.7659 8.11279C76.8207 8.07446 76.8782 8.0553 76.9384 8.0553H77.1519C77.2121 8.0553 77.2423 8.08815 77.2423 8.15385V13.2375C77.2423 13.3032 77.2121 13.3361 77.1519 13.3361H76.9137C76.859 13.3361 76.8316 13.3032 76.8316 13.2375V8.49878L75.7722 9.09831C75.6791 9.15853 75.6326 9.14211 75.6326 9.04903Z" fill="#58DDE6"/>
<path d="M72.8112 12.9665H73.6078C74.128 12.9665 74.388 12.7037 74.388 12.1781V11.6442C74.388 11.1186 74.128 10.8558 73.6078 10.8558H72.8112C72.2965 10.8558 72.0392 11.1186 72.0392 11.6442V12.1781C72.0392 12.7037 72.2965 12.9665 72.8112 12.9665ZM72.8112 10.5027H73.6078C73.8597 10.5027 74.0513 10.4342 74.1827 10.2974C74.3196 10.1605 74.388 9.96338 74.388 9.70605V9.21329C74.388 8.68767 74.128 8.42487 73.6078 8.42487H72.8112C72.2965 8.42487 72.0392 8.68767 72.0392 9.21329V9.70605C72.0392 10.2371 72.2965 10.5027 72.8112 10.5027ZM73.6407 13.3361H72.7783C72.4225 13.3361 72.1405 13.2375 71.9324 13.0404C71.7244 12.8378 71.6204 12.5586 71.6204 12.2027V11.6607C71.6204 11.1624 71.8202 10.8339 72.2199 10.6751C71.8202 10.5164 71.6204 10.1906 71.6204 9.69783V9.18865C71.6204 8.83276 71.7244 8.55627 71.9324 8.35917C72.1405 8.15659 72.4225 8.0553 72.7783 8.0553H73.6407C73.9966 8.0553 74.2758 8.15659 74.4784 8.35917C74.6864 8.55627 74.7905 8.83276 74.7905 9.18865V9.69783C74.7905 10.2015 74.5934 10.5273 74.1991 10.6751C74.5934 10.8284 74.7905 11.157 74.7905 11.6607V12.2027C74.7905 12.5586 74.6864 12.8378 74.4784 13.0404C74.2758 13.2375 73.9966 13.3361 73.6407 13.3361Z" fill="#58DDE6"/>
<path d="M68.7673 9.04903V8.86835C68.7673 8.79718 68.8002 8.73969 68.8659 8.69589L69.9007 8.11279C69.9554 8.07446 70.0129 8.0553 70.0732 8.0553H70.2867C70.3469 8.0553 70.377 8.08815 70.377 8.15385V13.2375C70.377 13.3032 70.3469 13.3361 70.2867 13.3361H70.0485C69.9938 13.3361 69.9664 13.3032 69.9664 13.2375V8.49878L68.9069 9.09831C68.8139 9.15853 68.7673 9.14211 68.7673 9.04903Z" fill="#58DDE6"/>
<path d="M66.0566 12.9665H66.7546C67.0065 12.9665 67.1981 12.898 67.3295 12.7612C67.4609 12.6188 67.5266 12.4162 67.5266 12.1534V11.365C67.5266 11.1077 67.4609 10.9106 67.3295 10.7737C67.1981 10.6313 67.0065 10.5602 66.7546 10.5602H65.2846V12.1534C65.2846 12.4162 65.3503 12.6188 65.4817 12.7612C65.6131 12.898 65.8047 12.9665 66.0566 12.9665ZM66.7875 13.3361H66.0237C65.6678 13.3361 65.3859 13.232 65.1778 13.024C64.9697 12.8159 64.8657 12.5312 64.8657 12.1699V9.2215C64.8657 8.86014 64.9697 8.57543 65.1778 8.36738C65.3859 8.15933 65.6678 8.0553 66.0237 8.0553H67.5841C67.6443 8.0553 67.6745 8.08541 67.6745 8.14564V8.34274C67.6745 8.39749 67.6443 8.42487 67.5841 8.42487H66.0566C65.8047 8.42487 65.6131 8.49604 65.4817 8.6384C65.3503 8.77528 65.2846 8.97512 65.2846 9.23792V10.1906H66.7875C67.1434 10.1906 67.4253 10.2946 67.6334 10.5027C67.8415 10.7107 67.9455 10.9927 67.9455 11.3486V12.1699C67.9455 12.5312 67.8415 12.8159 67.6334 13.024C67.4253 13.232 67.1434 13.3361 66.7875 13.3361Z" fill="#58DDE6"/>
<path d="M63.0054 11.8906V8.3838L60.9358 11.8906H63.0054ZM63.3174 13.3361H63.0957C63.0355 13.3361 63.0054 13.3032 63.0054 13.2375V12.2602H60.6237C60.5416 12.2602 60.5005 12.2219 60.5005 12.1452V11.9974C60.5005 11.9481 60.5197 11.8851 60.558 11.8085L62.7097 8.17849C62.759 8.09636 62.8247 8.0553 62.9068 8.0553H63.2928C63.3695 8.0553 63.4078 8.09636 63.4078 8.17849V11.8906H64.0237C64.084 11.8906 64.1141 11.918 64.1141 11.9727V12.1699C64.1141 12.2301 64.084 12.2602 64.0237 12.2602H63.4078V13.2375C63.4078 13.3032 63.3777 13.3361 63.3174 13.3361Z" fill="#58DDE6"/>
<path d="M57.7077 12.9665H58.4058C58.6576 12.9665 58.8492 12.898 58.9806 12.7612C59.1121 12.6188 59.1778 12.4162 59.1778 12.1534V11.365C59.1778 11.1077 59.1121 10.9106 58.9806 10.7737C58.8492 10.6313 58.6576 10.5602 58.4058 10.5602H56.9357V12.1534C56.9357 12.4162 57.0014 12.6188 57.1328 12.7612C57.2642 12.898 57.4558 12.9665 57.7077 12.9665ZM58.4386 13.3361H57.6748C57.319 13.3361 57.037 13.232 56.8289 13.024C56.6209 12.8159 56.5168 12.5312 56.5168 12.1699V9.2215C56.5168 8.86014 56.6209 8.57543 56.8289 8.36738C57.037 8.15933 57.319 8.0553 57.6748 8.0553H59.2352C59.2955 8.0553 59.3256 8.08541 59.3256 8.14564V8.34274C59.3256 8.39749 59.2955 8.42487 59.2352 8.42487H57.7077C57.4558 8.42487 57.2642 8.49604 57.1328 8.6384C57.0014 8.77528 56.9357 8.97512 56.9357 9.23792V10.1906H58.4386C58.7945 10.1906 59.0765 10.2946 59.2845 10.5027C59.4926 10.7107 59.5966 10.9927 59.5966 11.3486V12.1699C59.5966 12.5312 59.4926 12.8159 59.2845 13.024C59.0765 13.232 58.7945 13.3361 58.4386 13.3361Z" fill="#58DDE6"/>
<path d="M54.6562 11.8906V8.3838L52.5866 11.8906H54.6562ZM54.9683 13.3361H54.7466C54.6863 13.3361 54.6562 13.3032 54.6562 13.2375V12.2602H52.2746C52.1924 12.2602 52.1514 12.2219 52.1514 12.1452V11.9974C52.1514 11.9481 52.1705 11.8851 52.2089 11.8085L54.3606 8.17849C54.4099 8.09636 54.4756 8.0553 54.5577 8.0553H54.9437C55.0203 8.0553 55.0587 8.09636 55.0587 8.17849V11.8906H55.6746C55.7348 11.8906 55.7649 11.918 55.7649 11.9727V12.1699C55.7649 12.2301 55.7348 12.2602 55.6746 12.2602H55.0587V13.2375C55.0587 13.3032 55.0285 13.3361 54.9683 13.3361Z" fill="#58DDE6"/>
<path d="M75.6326 17.4126V17.2319C75.6326 17.1607 75.6654 17.1032 75.7311 17.0594L76.7659 16.4763C76.8207 16.438 76.8782 16.4188 76.9384 16.4188H77.1519C77.2121 16.4188 77.2423 16.4517 77.2423 16.5174V21.601C77.2423 21.6667 77.2121 21.6996 77.1519 21.6996H76.9137C76.859 21.6996 76.8316 21.6667 76.8316 21.601V16.8623L75.7722 17.4618C75.6791 17.5221 75.6326 17.5056 75.6326 17.4126Z" fill="#58DDE6"/>
<path d="M72.8112 21.33H73.6078C74.128 21.33 74.388 21.0672 74.388 20.5416V20.0078C74.388 19.4822 74.128 19.2193 73.6078 19.2193H72.8112C72.2965 19.2193 72.0392 19.4822 72.0392 20.0078V20.5416C72.0392 21.0672 72.2965 21.33 72.8112 21.33ZM72.8112 18.8662H73.6078C73.8597 18.8662 74.0513 18.7978 74.1827 18.6609C74.3196 18.524 74.388 18.3269 74.388 18.0696V17.5768C74.388 17.0512 74.128 16.7884 73.6078 16.7884H72.8112C72.2965 16.7884 72.0392 17.0512 72.0392 17.5768V18.0696C72.0392 18.6007 72.2965 18.8662 72.8112 18.8662ZM73.6407 21.6996H72.7783C72.4225 21.6996 72.1405 21.601 71.9324 21.4039C71.7244 21.2013 71.6204 20.9221 71.6204 20.5662V20.0242C71.6204 19.526 71.8202 19.1974 72.2199 19.0387C71.8202 18.8799 71.6204 18.5541 71.6204 18.0614V17.5522C71.6204 17.1963 71.7244 16.9198 71.9324 16.7227C72.1405 16.5201 72.4225 16.4188 72.7783 16.4188H73.6407C73.9966 16.4188 74.2758 16.5201 74.4784 16.7227C74.6864 16.9198 74.7905 17.1963 74.7905 17.5522V18.0614C74.7905 18.5651 74.5934 18.8908 74.1991 19.0387C74.5934 19.192 74.7905 19.5205 74.7905 20.0242V20.5662C74.7905 20.9221 74.6864 21.2013 74.4784 21.4039C74.2758 21.601 73.9966 21.6996 73.6407 21.6996Z" fill="#58DDE6"/>
<path d="M68.7673 17.4126V17.2319C68.7673 17.1607 68.8002 17.1032 68.8659 17.0594L69.9007 16.4763C69.9554 16.438 70.0129 16.4188 70.0732 16.4188H70.2867C70.3469 16.4188 70.377 16.4517 70.377 16.5174V21.601C70.377 21.6667 70.3469 21.6996 70.2867 21.6996H70.0485C69.9938 21.6996 69.9664 21.6667 69.9664 21.601V16.8623L68.9069 17.4618C68.8139 17.5221 68.7673 17.5056 68.7673 17.4126Z" fill="#58DDE6"/>
<path d="M66.0566 21.33H66.7546C67.0065 21.33 67.1981 21.2616 67.3295 21.1247C67.4609 20.9823 67.5266 20.7798 67.5266 20.517V19.7285C67.5266 19.4712 67.4609 19.2741 67.3295 19.1372C67.1981 18.9949 67.0065 18.9237 66.7546 18.9237H65.2846V20.517C65.2846 20.7798 65.3503 20.9823 65.4817 21.1247C65.6131 21.2616 65.8047 21.33 66.0566 21.33ZM66.7875 21.6996H66.0237C65.6678 21.6996 65.3859 21.5955 65.1778 21.3875C64.9697 21.1794 64.8657 20.8947 64.8657 20.5334V17.585C64.8657 17.2237 64.9697 16.939 65.1778 16.7309C65.3859 16.5229 65.6678 16.4188 66.0237 16.4188H67.5841C67.6443 16.4188 67.6745 16.4489 67.6745 16.5092V16.7063C67.6745 16.761 67.6443 16.7884 67.5841 16.7884H66.0566C65.8047 16.7884 65.6131 16.8596 65.4817 17.0019C65.3503 17.1388 65.2846 17.3386 65.2846 17.6014V18.5541H66.7875C67.1434 18.5541 67.4253 18.6581 67.6334 18.8662C67.8415 19.0743 67.9455 19.3562 67.9455 19.7121V20.5334C67.9455 20.8947 67.8415 21.1794 67.6334 21.3875C67.4253 21.5955 67.1434 21.6996 66.7875 21.6996Z" fill="#58DDE6"/>
<path d="M63.0054 20.2541V16.7473L60.9358 20.2541H63.0054ZM63.3174 21.6996H63.0957C63.0355 21.6996 63.0054 21.6667 63.0054 21.601V20.6237H60.6237C60.5416 20.6237 60.5005 20.5854 60.5005 20.5087V20.3609C60.5005 20.3116 60.5197 20.2487 60.558 20.172L62.7097 16.542C62.759 16.4599 62.8247 16.4188 62.9068 16.4188H63.2928C63.3695 16.4188 63.4078 16.4599 63.4078 16.542V20.2541H64.0237C64.084 20.2541 64.1141 20.2815 64.1141 20.3363V20.5334C64.1141 20.5936 64.084 20.6237 64.0237 20.6237H63.4078V21.601C63.4078 21.6667 63.3777 21.6996 63.3174 21.6996Z" fill="#58DDE6"/>
<path d="M57.7077 21.33H58.4058C58.6576 21.33 58.8492 21.2616 58.9806 21.1247C59.1121 20.9823 59.1778 20.7798 59.1778 20.517V19.7285C59.1778 19.4712 59.1121 19.2741 58.9806 19.1372C58.8492 18.9949 58.6576 18.9237 58.4058 18.9237H56.9357V20.517C56.9357 20.7798 57.0014 20.9823 57.1328 21.1247C57.2642 21.2616 57.4558 21.33 57.7077 21.33ZM58.4386 21.6996H57.6748C57.319 21.6996 57.037 21.5955 56.8289 21.3875C56.6209 21.1794 56.5168 20.8947 56.5168 20.5334V17.585C56.5168 17.2237 56.6209 16.939 56.8289 16.7309C57.037 16.5229 57.319 16.4188 57.6748 16.4188H59.2352C59.2955 16.4188 59.3256 16.4489 59.3256 16.5092V16.7063C59.3256 16.761 59.2955 16.7884 59.2352 16.7884H57.7077C57.4558 16.7884 57.2642 16.8596 57.1328 17.0019C57.0014 17.1388 56.9357 17.3386 56.9357 17.6014V18.5541H58.4386C58.7945 18.5541 59.0765 18.6581 59.2845 18.8662C59.4926 19.0743 59.5966 19.3562 59.5966 19.7121V20.5334C59.5966 20.8947 59.4926 21.1794 59.2845 21.3875C59.0765 21.5955 58.7945 21.6996 58.4386 21.6996Z" fill="#58DDE6"/>
<path d="M54.6562 20.2541V16.7473L52.5866 20.2541H54.6562ZM54.9683 21.6996H54.7466C54.6863 21.6996 54.6562 21.6667 54.6562 21.601V20.6237H52.2746C52.1924 20.6237 52.1514 20.5854 52.1514 20.5087V20.3609C52.1514 20.3116 52.1705 20.2487 52.2089 20.172L54.3606 16.542C54.4099 16.4599 54.4756 16.4188 54.5577 16.4188H54.9437C55.0203 16.4188 55.0587 16.4599 55.0587 16.542V20.2541H55.6746C55.7348 20.2541 55.7649 20.2815 55.7649 20.3363V20.5334C55.7649 20.5936 55.7348 20.6237 55.6746 20.6237H55.0587V21.601C55.0587 21.6667 55.0285 21.6996 54.9683 21.6996Z" fill="#58DDE6"/>
<path d="M75.6326 25.7761V25.5954C75.6326 25.5242 75.6654 25.4667 75.7311 25.4229L76.7659 24.8398C76.8207 24.8015 76.8782 24.7823 76.9384 24.7823H77.1519C77.2121 24.7823 77.2423 24.8152 77.2423 24.8809V29.9645C77.2423 30.0303 77.2121 30.0631 77.1519 30.0631H76.9137C76.859 30.0631 76.8316 30.0303 76.8316 29.9645V25.2258L75.7722 25.8254C75.6791 25.8856 75.6326 25.8692 75.6326 25.7761Z" fill="#58DDE6"/>
<path d="M72.8112 29.6935H73.6078C74.128 29.6935 74.388 29.4307 74.388 28.9051V28.3713C74.388 27.8457 74.128 27.5829 73.6078 27.5829H72.8112C72.2965 27.5829 72.0392 27.8457 72.0392 28.3713V28.9051C72.0392 29.4307 72.2965 29.6935 72.8112 29.6935ZM72.8112 27.2297H73.6078C73.8597 27.2297 74.0513 27.1613 74.1827 27.0244C74.3196 26.8875 74.388 26.6904 74.388 26.4331V25.9403C74.388 25.4147 74.128 25.1519 73.6078 25.1519H72.8112C72.2965 25.1519 72.0392 25.4147 72.0392 25.9403V26.4331C72.0392 26.9642 72.2965 27.2297 72.8112 27.2297ZM73.6407 30.0631H72.7783C72.4225 30.0631 72.1405 29.9646 71.9324 29.7674C71.7244 29.5649 71.6204 29.2856 71.6204 28.9298V28.3877C71.6204 27.8895 71.8202 27.561 72.2199 27.4022C71.8202 27.2434 71.6204 26.9176 71.6204 26.4249V25.9157C71.6204 25.5598 71.7244 25.2833 71.9324 25.0862C72.1405 24.8836 72.4225 24.7823 72.7783 24.7823H73.6407C73.9966 24.7823 74.2758 24.8836 74.4784 25.0862C74.6864 25.2833 74.7905 25.5598 74.7905 25.9157V26.4249C74.7905 26.9286 74.5934 27.2544 74.1991 27.4022C74.5934 27.5555 74.7905 27.884 74.7905 28.3877V28.9298C74.7905 29.2856 74.6864 29.5649 74.4784 29.7674C74.2758 29.9646 73.9966 30.0631 73.6407 30.0631Z" fill="#58DDE6"/>
<path d="M68.7673 25.7761V25.5954C68.7673 25.5242 68.8002 25.4667 68.8659 25.4229L69.9007 24.8398C69.9554 24.8015 70.0129 24.7823 70.0732 24.7823H70.2867C70.3469 24.7823 70.377 24.8152 70.377 24.8809V29.9645C70.377 30.0303 70.3469 30.0631 70.2867 30.0631H70.0485C69.9938 30.0631 69.9664 30.0303 69.9664 29.9645V25.2258L68.9069 25.8254C68.8139 25.8856 68.7673 25.8692 68.7673 25.7761Z" fill="#58DDE6"/>
<path d="M66.0566 29.6935H66.7546C67.0065 29.6935 67.1981 29.6251 67.3295 29.4882C67.4609 29.3459 67.5266 29.1433 67.5266 28.8805V28.0921C67.5266 27.8347 67.4609 27.6376 67.3295 27.5007C67.1981 27.3584 67.0065 27.2872 66.7546 27.2872H65.2846V28.8805C65.2846 29.1433 65.3503 29.3459 65.4817 29.4882C65.6131 29.6251 65.8047 29.6935 66.0566 29.6935ZM66.7875 30.0631H66.0237C65.6678 30.0631 65.3859 29.9591 65.1778 29.751C64.9697 29.543 64.8657 29.2583 64.8657 28.8969V25.9485C64.8657 25.5872 64.9697 25.3025 65.1778 25.0944C65.3859 24.8864 65.6678 24.7823 66.0237 24.7823H67.5841C67.6443 24.7823 67.6745 24.8125 67.6745 24.8727V25.0698C67.6745 25.1245 67.6443 25.1519 67.5841 25.1519H66.0566C65.8047 25.1519 65.6131 25.2231 65.4817 25.3654C65.3503 25.5023 65.2846 25.7022 65.2846 25.965V26.9176H66.7875C67.1434 26.9176 67.4253 27.0217 67.6334 27.2297C67.8415 27.4378 67.9455 27.7198 67.9455 28.0756V28.8969C67.9455 29.2583 67.8415 29.543 67.6334 29.751C67.4253 29.9591 67.1434 30.0631 66.7875 30.0631Z" fill="#58DDE6"/>
<path d="M63.0054 28.6177V25.1109L60.9358 28.6177H63.0054ZM63.3174 30.0631H63.0957C63.0355 30.0631 63.0054 30.0303 63.0054 29.9645V28.9872H60.6237C60.5416 28.9872 60.5005 28.9489 60.5005 28.8723V28.7244C60.5005 28.6752 60.5197 28.6122 60.558 28.5355L62.7097 24.9055C62.759 24.8234 62.8247 24.7823 62.9068 24.7823H63.2928C63.3695 24.7823 63.4078 24.8234 63.4078 24.9055V28.6177H64.0237C64.084 28.6177 64.1141 28.645 64.1141 28.6998V28.8969C64.1141 28.9571 64.084 28.9872 64.0237 28.9872H63.4078V29.9645C63.4078 30.0303 63.3777 30.0631 63.3174 30.0631Z" fill="#58DDE6"/>
<path d="M57.7077 29.6935H58.4058C58.6576 29.6935 58.8492 29.6251 58.9806 29.4882C59.1121 29.3459 59.1778 29.1433 59.1778 28.8805V28.0921C59.1778 27.8347 59.1121 27.6376 58.9806 27.5007C58.8492 27.3584 58.6576 27.2872 58.4058 27.2872H56.9357V28.8805C56.9357 29.1433 57.0014 29.3459 57.1328 29.4882C57.2642 29.6251 57.4558 29.6935 57.7077 29.6935ZM58.4386 30.0631H57.6748C57.319 30.0631 57.037 29.9591 56.8289 29.751C56.6209 29.543 56.5168 29.2583 56.5168 28.8969V25.9485C56.5168 25.5872 56.6209 25.3025 56.8289 25.0944C57.037 24.8864 57.319 24.7823 57.6748 24.7823H59.2352C59.2955 24.7823 59.3256 24.8125 59.3256 24.8727V25.0698C59.3256 25.1245 59.2955 25.1519 59.2352 25.1519H57.7077C57.4558 25.1519 57.2642 25.2231 57.1328 25.3654C57.0014 25.5023 56.9357 25.7022 56.9357 25.965V26.9176H58.4386C58.7945 26.9176 59.0765 27.0217 59.2845 27.2297C59.4926 27.4378 59.5966 27.7198 59.5966 28.0756V28.8969C59.5966 29.2583 59.4926 29.543 59.2845 29.751C59.0765 29.9591 58.7945 30.0631 58.4386 30.0631Z" fill="#58DDE6"/>
<path d="M54.6562 28.6177V25.1109L52.5866 28.6177H54.6562ZM54.9683 30.0631H54.7466C54.6863 30.0631 54.6562 30.0303 54.6562 29.9645V28.9872H52.2746C52.1924 28.9872 52.1514 28.9489 52.1514 28.8723V28.7244C52.1514 28.6752 52.1705 28.6122 52.2089 28.5355L54.3606 24.9055C54.4099 24.8234 54.4756 24.7823 54.5577 24.7823H54.9437C55.0203 24.7823 55.0587 24.8234 55.0587 24.9055V28.6177H55.6746C55.7348 28.6177 55.7649 28.645 55.7649 28.6998V28.8969C55.7649 28.9571 55.7348 28.9872 55.6746 28.9872H55.0587V29.9645C55.0587 30.0303 55.0285 30.0631 54.9683 30.0631Z" fill="#58DDE6"/>
<path d="M75.6326 34.1399V33.9592C75.6326 33.888 75.6654 33.8305 75.7311 33.7867L76.7659 33.2036C76.8207 33.1653 76.8782 33.1461 76.9384 33.1461H77.1519C77.2121 33.1461 77.2423 33.179 77.2423 33.2447V38.3283C77.2423 38.394 77.2121 38.4269 77.1519 38.4269H76.9137C76.859 38.4269 76.8316 38.394 76.8316 38.3283V33.5896L75.7722 34.1891C75.6791 34.2494 75.6326 34.2329 75.6326 34.1399Z" fill="#58DDE6"/>
<path d="M72.8112 38.0573H73.6078C74.128 38.0573 74.388 37.7945 74.388 37.2689V36.7351C74.388 36.2094 74.128 35.9466 73.6078 35.9466H72.8112C72.2965 35.9466 72.0392 36.2094 72.0392 36.7351V37.2689C72.0392 37.7945 72.2965 38.0573 72.8112 38.0573ZM72.8112 35.5935H73.6078C73.8597 35.5935 74.0513 35.5251 74.1827 35.3882C74.3196 35.2513 74.388 35.0542 74.388 34.7969V34.3041C74.388 33.7785 74.128 33.5157 73.6078 33.5157H72.8112C72.2965 33.5157 72.0392 33.7785 72.0392 34.3041V34.7969C72.0392 35.328 72.2965 35.5935 72.8112 35.5935ZM73.6407 38.4269H72.7783C72.4225 38.4269 72.1405 38.3283 71.9324 38.1312C71.7244 37.9286 71.6204 37.6494 71.6204 37.2935V36.7515C71.6204 36.2532 71.8202 35.9247 72.2199 35.766C71.8202 35.6072 71.6204 35.2814 71.6204 34.7887V34.2795C71.6204 33.9236 71.7244 33.6471 71.9324 33.45C72.1405 33.2474 72.4225 33.1461 72.7783 33.1461H73.6407C73.9966 33.1461 74.2758 33.2474 74.4784 33.45C74.6864 33.6471 74.7905 33.9236 74.7905 34.2795V34.7887C74.7905 35.2924 74.5934 35.6181 74.1991 35.766C74.5934 35.9193 74.7905 36.2478 74.7905 36.7515V37.2935C74.7905 37.6494 74.6864 37.9286 74.4784 38.1312C74.2758 38.3283 73.9966 38.4269 73.6407 38.4269Z" fill="#58DDE6"/>
<path d="M68.7673 34.1399V33.9592C68.7673 33.888 68.8002 33.8305 68.8659 33.7867L69.9007 33.2036C69.9554 33.1653 70.0129 33.1461 70.0732 33.1461H70.2867C70.3469 33.1461 70.377 33.179 70.377 33.2447V38.3283C70.377 38.394 70.3469 38.4269 70.2867 38.4269H70.0485C69.9938 38.4269 69.9664 38.394 69.9664 38.3283V33.5896L68.9069 34.1891C68.8139 34.2494 68.7673 34.2329 68.7673 34.1399Z" fill="#58DDE6"/>
<path d="M66.0566 38.0573H66.7546C67.0065 38.0573 67.1981 37.9889 67.3295 37.852C67.4609 37.7096 67.5266 37.5071 67.5266 37.2442V36.4558C67.5266 36.1985 67.4609 36.0014 67.3295 35.8645C67.1981 35.7222 67.0065 35.651 66.7546 35.651H65.2846V37.2442C65.2846 37.5071 65.3503 37.7096 65.4817 37.852C65.6131 37.9889 65.8047 38.0573 66.0566 38.0573ZM66.7875 38.4269H66.0237C65.6678 38.4269 65.3859 38.3228 65.1778 38.1148C64.9697 37.9067 64.8657 37.622 64.8657 37.2607V34.3123C64.8657 33.951 64.9697 33.6663 65.1778 33.4582C65.3859 33.2501 65.6678 33.1461 66.0237 33.1461H67.5841C67.6443 33.1461 67.6745 33.1762 67.6745 33.2365V33.4336C67.6745 33.4883 67.6443 33.5157 67.5841 33.5157H66.0566C65.8047 33.5157 65.6131 33.5869 65.4817 33.7292C65.3503 33.8661 65.2846 34.0659 65.2846 34.3287V35.2814H66.7875C67.1434 35.2814 67.4253 35.3854 67.6334 35.5935C67.8415 35.8016 67.9455 36.0835 67.9455 36.4394V37.2607C67.9455 37.622 67.8415 37.9067 67.6334 38.1148C67.4253 38.3228 67.1434 38.4269 66.7875 38.4269Z" fill="#58DDE6"/>
<path d="M63.0054 36.9814V33.4746L60.9358 36.9814H63.0054ZM63.3174 38.4269H63.0957C63.0355 38.4269 63.0054 38.394 63.0054 38.3283V37.351H60.6237C60.5416 37.351 60.5005 37.3127 60.5005 37.236V37.0882C60.5005 37.0389 60.5197 36.976 60.558 36.8993L62.7097 33.2693C62.759 33.1872 62.8247 33.1461 62.9068 33.1461H63.2928C63.3695 33.1461 63.4078 33.1872 63.4078 33.2693V36.9814H64.0237C64.084 36.9814 64.1141 37.0088 64.1141 37.0636V37.2607C64.1141 37.3209 64.084 37.351 64.0237 37.351H63.4078V38.3283C63.4078 38.394 63.3777 38.4269 63.3174 38.4269Z" fill="#58DDE6"/>
<path d="M57.7077 38.0573H58.4058C58.6576 38.0573 58.8492 37.9889 58.9806 37.852C59.1121 37.7096 59.1778 37.5071 59.1778 37.2442V36.4558C59.1778 36.1985 59.1121 36.0014 58.9806 35.8645C58.8492 35.7222 58.6576 35.651 58.4058 35.651H56.9357V37.2442C56.9357 37.5071 57.0014 37.7096 57.1328 37.852C57.2642 37.9889 57.4558 38.0573 57.7077 38.0573ZM58.4386 38.4269H57.6748C57.319 38.4269 57.037 38.3228 56.8289 38.1148C56.6209 37.9067 56.5168 37.622 56.5168 37.2607V34.3123C56.5168 33.951 56.6209 33.6663 56.8289 33.4582C57.037 33.2501 57.319 33.1461 57.6748 33.1461H59.2352C59.2955 33.1461 59.3256 33.1762 59.3256 33.2365V33.4336C59.3256 33.4883 59.2955 33.5157 59.2352 33.5157H57.7077C57.4558 33.5157 57.2642 33.5869 57.1328 33.7292C57.0014 33.8661 56.9357 34.0659 56.9357 34.3287V35.2814H58.4386C58.7945 35.2814 59.0765 35.3854 59.2845 35.5935C59.4926 35.8016 59.5966 36.0835 59.5966 36.4394V37.2607C59.5966 37.622 59.4926 37.9067 59.2845 38.1148C59.0765 38.3228 58.7945 38.4269 58.4386 38.4269Z" fill="#58DDE6"/>
<path d="M54.6562 36.9814V33.4746L52.5866 36.9814H54.6562ZM54.9683 38.4269H54.7466C54.6863 38.4269 54.6562 38.394 54.6562 38.3283V37.351H52.2746C52.1924 37.351 52.1514 37.3127 52.1514 37.236V37.0882C52.1514 37.0389 52.1705 36.976 52.2089 36.8993L54.3606 33.2693C54.4099 33.1872 54.4756 33.1461 54.5577 33.1461H54.9437C55.0203 33.1461 55.0587 33.1872 55.0587 33.2693V36.9814H55.6746C55.7348 36.9814 55.7649 37.0088 55.7649 37.0636V37.2607C55.7649 37.3209 55.7348 37.351 55.6746 37.351H55.0587V38.3283C55.0587 38.394 55.0285 38.4269 54.9683 38.4269Z" fill="#58DDE6"/>
</svg>
